%FSLAX34Y34*%
%MOMM*%
%LNSILK_TOP*%
G71*
G01*
%ADD10C,0.150*%
%ADD11C,0.122*%
%ADD12C,0.254*%
%LPD*%
G54D10*
X786353Y945041D02*
X786353Y925041D01*
X876553Y925041D01*
X876553Y945041D01*
X786353Y945041D01*
G54D10*
X786353Y940041D02*
X786353Y930041D01*
X791353Y930041D01*
X791353Y940041D01*
X786353Y940041D01*
G54D10*
X653416Y879775D02*
X653416Y781775D01*
X815816Y781775D01*
X815816Y879775D01*
X653416Y879775D01*
G54D10*
X653416Y850775D02*
X653416Y810775D01*
X663416Y810775D01*
X663416Y850775D01*
X653416Y850775D01*
G54D10*
X463709Y879775D02*
X463709Y781775D01*
X626109Y781775D01*
X626109Y879775D01*
X463709Y879775D01*
G54D10*
X463709Y850775D02*
X463709Y810775D01*
X473709Y810775D01*
X473709Y850775D01*
X463709Y850775D01*
G54D10*
X274003Y879775D02*
X274003Y781775D01*
X436403Y781775D01*
X436403Y879775D01*
X274003Y879775D01*
G54D10*
X274003Y850775D02*
X274003Y810775D01*
X284003Y810775D01*
X284003Y850775D01*
X274003Y850775D01*
G54D10*
X83503Y879775D02*
X83503Y781775D01*
X245903Y781775D01*
X245903Y879775D01*
X83503Y879775D01*
G54D10*
X83503Y850775D02*
X83503Y810775D01*
X93503Y810775D01*
X93503Y850775D01*
X83503Y850775D01*
G54D10*
X23972Y981772D02*
X23972Y883772D01*
X186372Y883772D01*
X186372Y981772D01*
X23972Y981772D01*
G54D10*
X23972Y952772D02*
X23972Y912772D01*
X33972Y912772D01*
X33972Y952772D01*
X23972Y952772D01*
G54D10*
X208122Y981772D02*
X208122Y883772D01*
X370522Y883772D01*
X370522Y981772D01*
X208122Y981772D01*
G54D10*
X208122Y952772D02*
X208122Y912772D01*
X218122Y912772D01*
X218122Y952772D01*
X208122Y952772D01*
G54D10*
X391081Y982169D02*
X391081Y884169D01*
X553481Y884169D01*
X553481Y982169D01*
X391081Y982169D01*
G54D10*
X391081Y953169D02*
X391081Y913169D01*
X401081Y913169D01*
X401081Y953169D01*
X391081Y953169D01*
G54D10*
X575231Y982169D02*
X575231Y884169D01*
X737631Y884169D01*
X737631Y982169D01*
X575231Y982169D01*
G54D10*
X575231Y953169D02*
X575231Y913169D01*
X585231Y913169D01*
X585231Y953169D01*
X575231Y953169D01*
G54D10*
X80962Y947738D02*
X130175Y947738D01*
X130175Y919162D01*
X80962Y919162D01*
X80962Y947738D01*
G54D10*
X265112Y947738D02*
X314325Y947738D01*
X314325Y919162D01*
X265112Y919162D01*
X265112Y947738D01*
G54D10*
X447675Y947738D02*
X496888Y947738D01*
X496888Y919162D01*
X447675Y919162D01*
X447675Y947738D01*
G54D10*
X631825Y947738D02*
X681037Y947738D01*
X681037Y919162D01*
X631825Y919162D01*
X631825Y947738D01*
G54D10*
X711200Y844550D02*
X760412Y844550D01*
X760412Y815975D01*
X711200Y815975D01*
X711200Y844550D01*
G54D10*
X520700Y844550D02*
X569912Y844550D01*
X569912Y815975D01*
X520700Y815975D01*
X520700Y844550D01*
G54D10*
X330200Y844550D02*
X379412Y844550D01*
X379412Y815975D01*
X330200Y815975D01*
X330200Y844550D01*
G54D10*
X141288Y844550D02*
X190500Y844550D01*
X190500Y815975D01*
X141288Y815975D01*
X141288Y844550D01*
G54D10*
X778669Y958056D02*
X778669Y908844D01*
X750094Y908844D01*
X750094Y958056D01*
X778669Y958056D01*
G54D11*
X10205Y926202D02*
X18150Y926202D01*
X19372Y926936D01*
X19983Y928402D01*
X19983Y929869D01*
X19372Y931336D01*
X18150Y932069D01*
X10205Y932069D01*
G54D11*
X13872Y934758D02*
X10205Y938425D01*
X19983Y938425D01*
G54D11*
X193484Y926139D02*
X201429Y926139D01*
X202651Y926872D01*
X203262Y928339D01*
X203262Y929806D01*
X202651Y931272D01*
X201429Y932006D01*
X193484Y932006D01*
G54D11*
X195318Y934695D02*
X194095Y935428D01*
X193484Y936895D01*
X193484Y938362D01*
X194095Y939828D01*
X195318Y940562D01*
X196540Y940562D01*
X197762Y939828D01*
X198373Y938362D01*
X198984Y939828D01*
X200206Y940562D01*
X201429Y940562D01*
X202651Y939828D01*
X203262Y938362D01*
X203262Y936895D01*
X202651Y935428D01*
X201429Y934695D01*
G54D11*
X377376Y924489D02*
X385321Y924489D01*
X386543Y925223D01*
X387154Y926689D01*
X387154Y928156D01*
X386543Y929623D01*
X385321Y930356D01*
X377376Y930356D01*
G54D11*
X377376Y938912D02*
X377376Y933045D01*
X381654Y933045D01*
X381654Y933779D01*
X381043Y935245D01*
X381043Y936712D01*
X381654Y938179D01*
X382876Y938912D01*
X385321Y938912D01*
X386543Y938179D01*
X387154Y936712D01*
X387154Y935245D01*
X386543Y933779D01*
X385321Y933045D01*
G54D11*
X560750Y925649D02*
X568694Y925649D01*
X569916Y926382D01*
X570527Y927849D01*
X570527Y929316D01*
X569916Y930782D01*
X568694Y931516D01*
X560750Y931516D01*
G54D11*
X560750Y934205D02*
X560750Y940072D01*
X561972Y939338D01*
X563805Y937872D01*
X566250Y936405D01*
X568083Y935672D01*
X570527Y935672D01*
G54D11*
X774890Y961282D02*
X782834Y961282D01*
X784057Y962015D01*
X784668Y963482D01*
X784668Y964949D01*
X784057Y966415D01*
X782834Y967149D01*
X774890Y967149D01*
G54D11*
X782834Y969838D02*
X784057Y970571D01*
X784668Y972038D01*
X784668Y973505D01*
X784057Y974971D01*
X782834Y975705D01*
X779779Y975705D01*
X779168Y975705D01*
X780390Y973505D01*
X780390Y972038D01*
X779779Y970571D01*
X778557Y969838D01*
X776723Y969838D01*
X775501Y970571D01*
X774890Y972038D01*
X774890Y973505D01*
X775501Y974971D01*
X776723Y975705D01*
X779779Y975705D01*
G54D11*
X67613Y824797D02*
X75557Y824797D01*
X76779Y825530D01*
X77390Y826997D01*
X77390Y828463D01*
X76779Y829930D01*
X75557Y830663D01*
X67613Y830663D01*
G54D11*
X77390Y839219D02*
X77390Y833353D01*
X76779Y833353D01*
X75557Y834086D01*
X71890Y838486D01*
X70668Y839219D01*
X69446Y839219D01*
X68224Y838486D01*
X67613Y837019D01*
X67613Y835553D01*
X68224Y834086D01*
X69446Y833353D01*
G54D11*
X258512Y824969D02*
X266457Y824969D01*
X267679Y825703D01*
X268290Y827169D01*
X268290Y828636D01*
X267679Y830103D01*
X266457Y830836D01*
X258512Y830836D01*
G54D11*
X268290Y837925D02*
X258512Y837925D01*
X264624Y833525D01*
X265846Y833525D01*
X265846Y839392D01*
G54D11*
X448278Y824936D02*
X456222Y824936D01*
X457445Y825669D01*
X458056Y827136D01*
X458056Y828602D01*
X457445Y830069D01*
X456222Y830802D01*
X448278Y830802D01*
G54D11*
X450111Y839358D02*
X448889Y838625D01*
X448278Y837158D01*
X448278Y835692D01*
X448889Y834225D01*
X450111Y833492D01*
X453167Y833492D01*
X453778Y833492D01*
X452556Y835692D01*
X452556Y837158D01*
X453167Y838625D01*
X454389Y839358D01*
X456222Y839358D01*
X457445Y838625D01*
X458056Y837158D01*
X458056Y835692D01*
X457445Y834225D01*
X456222Y833492D01*
X453167Y833492D01*
G54D11*
X637984Y824936D02*
X645929Y824936D01*
X647151Y825669D01*
X647762Y827136D01*
X647762Y828602D01*
X647151Y830069D01*
X645929Y830802D01*
X637984Y830802D01*
G54D11*
X642873Y837158D02*
X642873Y835692D01*
X642262Y834225D01*
X641040Y833492D01*
X639818Y833492D01*
X638595Y834225D01*
X637984Y835692D01*
X637984Y837158D01*
X638595Y838625D01*
X639818Y839358D01*
X641040Y839358D01*
X642262Y838625D01*
X642873Y837158D01*
X643484Y838625D01*
X644706Y839358D01*
X645929Y839358D01*
X647151Y838625D01*
X647762Y837158D01*
X647762Y835692D01*
X647151Y834225D01*
X645929Y833492D01*
X644706Y833492D01*
X643484Y834225D01*
X642873Y835692D01*
G54D12*
X50800Y770889D02*
X57911Y776222D01*
X57911Y762000D01*
G54D12*
X838200Y773556D02*
X839622Y775333D01*
X842467Y776222D01*
X845311Y776222D01*
X848156Y775333D01*
X849578Y773556D01*
X849578Y771778D01*
X848156Y770000D01*
X845311Y769111D01*
X848156Y768222D01*
X849578Y766444D01*
X849578Y764667D01*
X848156Y762889D01*
X845311Y762000D01*
X842467Y762000D01*
X839622Y762889D01*
X838200Y764667D01*
G54D12*
X865934Y773556D02*
X865934Y764667D01*
X864512Y762889D01*
X861667Y762000D01*
X858823Y762000D01*
X855978Y762889D01*
X854556Y764667D01*
X854556Y773556D01*
X855978Y775333D01*
X858823Y776222D01*
X861667Y776222D01*
X864512Y775333D01*
X865934Y773556D01*
M02*
