%FSLAX34Y34*%
%MOMM*%
%LNCOPPER_TOP*%
G71*
G01*
%ADD10R,0.600X2.000*%
%ADD11R,1.600X2.000*%
%ADD12C,1.000*%
%ADD13C,0.800*%
%ADD14C,0.200*%
%ADD15R,1.200X2.400*%
%ADD16R,2.400X1.200*%
%ADD17C,0.150*%
%LPD*%
X793353Y906072D02*
G54D10*
D03*
X806053Y906072D02*
G54D10*
D03*
X818753Y906072D02*
G54D10*
D03*
X831453Y906072D02*
G54D10*
D03*
X844153Y906072D02*
G54D10*
D03*
X856853Y906072D02*
G54D10*
D03*
X869553Y906072D02*
G54D10*
D03*
X869553Y960834D02*
G54D10*
D03*
X856853Y960834D02*
G54D10*
D03*
X844153Y960834D02*
G54D10*
D03*
X831453Y960834D02*
G54D10*
D03*
X818753Y960834D02*
G54D10*
D03*
X806053Y960834D02*
G54D10*
D03*
X793353Y960834D02*
G54D10*
D03*
X658416Y794775D02*
G54D10*
D03*
X671116Y794775D02*
G54D10*
D03*
X683816Y794775D02*
G54D10*
D03*
X696516Y794775D02*
G54D10*
D03*
X709216Y794775D02*
G54D10*
D03*
X760016Y794775D02*
G54D10*
D03*
X772716Y794775D02*
G54D10*
D03*
X785416Y794775D02*
G54D10*
D03*
X798116Y794775D02*
G54D10*
D03*
X810816Y794775D02*
G54D10*
D03*
X810816Y866775D02*
G54D10*
D03*
X798116Y866775D02*
G54D10*
D03*
X785416Y866775D02*
G54D10*
D03*
X772716Y866775D02*
G54D10*
D03*
X760016Y866775D02*
G54D10*
D03*
X709216Y866775D02*
G54D10*
D03*
X696516Y866775D02*
G54D10*
D03*
X683816Y866775D02*
G54D10*
D03*
X671116Y866775D02*
G54D10*
D03*
X658416Y866775D02*
G54D10*
D03*
X468709Y794775D02*
G54D10*
D03*
X481409Y794775D02*
G54D10*
D03*
X494109Y794775D02*
G54D10*
D03*
X506809Y794775D02*
G54D10*
D03*
X519509Y794775D02*
G54D10*
D03*
X570309Y794775D02*
G54D10*
D03*
X583009Y794775D02*
G54D10*
D03*
X595709Y794775D02*
G54D10*
D03*
X608409Y794775D02*
G54D10*
D03*
X621109Y794775D02*
G54D10*
D03*
X621109Y866775D02*
G54D10*
D03*
X608409Y866775D02*
G54D10*
D03*
X595709Y866775D02*
G54D10*
D03*
X583009Y866775D02*
G54D10*
D03*
X570309Y866775D02*
G54D10*
D03*
X519509Y866775D02*
G54D10*
D03*
X506809Y866775D02*
G54D10*
D03*
X494109Y866775D02*
G54D10*
D03*
X481409Y866775D02*
G54D10*
D03*
X468709Y866775D02*
G54D10*
D03*
X279003Y794775D02*
G54D10*
D03*
X291703Y794775D02*
G54D10*
D03*
X304403Y794775D02*
G54D10*
D03*
X317103Y794775D02*
G54D10*
D03*
X329803Y794775D02*
G54D10*
D03*
X380603Y794775D02*
G54D10*
D03*
X393303Y794775D02*
G54D10*
D03*
X406003Y794775D02*
G54D10*
D03*
X418703Y794775D02*
G54D10*
D03*
X431403Y794775D02*
G54D10*
D03*
X431403Y866775D02*
G54D10*
D03*
X418703Y866775D02*
G54D10*
D03*
X406003Y866775D02*
G54D10*
D03*
X393303Y866775D02*
G54D10*
D03*
X380603Y866775D02*
G54D10*
D03*
X329803Y866775D02*
G54D10*
D03*
X317103Y866775D02*
G54D10*
D03*
X304403Y866775D02*
G54D10*
D03*
X291703Y866775D02*
G54D10*
D03*
X279003Y866775D02*
G54D10*
D03*
X88503Y794775D02*
G54D10*
D03*
X101203Y794775D02*
G54D10*
D03*
X113903Y794775D02*
G54D10*
D03*
X126603Y794775D02*
G54D10*
D03*
X139303Y794775D02*
G54D10*
D03*
X190103Y794775D02*
G54D10*
D03*
X202803Y794775D02*
G54D10*
D03*
X215503Y794775D02*
G54D10*
D03*
X228203Y794775D02*
G54D10*
D03*
X240903Y794775D02*
G54D10*
D03*
X240903Y866775D02*
G54D10*
D03*
X228203Y866775D02*
G54D10*
D03*
X215503Y866775D02*
G54D10*
D03*
X202803Y866775D02*
G54D10*
D03*
X190103Y866775D02*
G54D10*
D03*
X139303Y866775D02*
G54D10*
D03*
X126603Y866775D02*
G54D10*
D03*
X113903Y866775D02*
G54D10*
D03*
X101203Y866775D02*
G54D10*
D03*
X88503Y866775D02*
G54D10*
D03*
X28972Y896772D02*
G54D10*
D03*
X41672Y896772D02*
G54D10*
D03*
X54372Y896772D02*
G54D10*
D03*
X67072Y896772D02*
G54D10*
D03*
X79772Y896772D02*
G54D10*
D03*
X130572Y896772D02*
G54D10*
D03*
X143272Y896772D02*
G54D10*
D03*
X155972Y896772D02*
G54D10*
D03*
X168672Y896772D02*
G54D10*
D03*
X181372Y896772D02*
G54D10*
D03*
X181372Y968772D02*
G54D10*
D03*
X168672Y968772D02*
G54D10*
D03*
X155972Y968772D02*
G54D10*
D03*
X143272Y968772D02*
G54D10*
D03*
X130572Y968772D02*
G54D10*
D03*
X79772Y968772D02*
G54D10*
D03*
X67072Y968772D02*
G54D10*
D03*
X54372Y968772D02*
G54D10*
D03*
X41672Y968772D02*
G54D10*
D03*
X28972Y968772D02*
G54D10*
D03*
X213122Y896772D02*
G54D10*
D03*
X225822Y896772D02*
G54D10*
D03*
X238522Y896772D02*
G54D10*
D03*
X251222Y896772D02*
G54D10*
D03*
X263922Y896772D02*
G54D10*
D03*
X314722Y896772D02*
G54D10*
D03*
X327422Y896772D02*
G54D10*
D03*
X340122Y896772D02*
G54D10*
D03*
X352822Y896772D02*
G54D10*
D03*
X365522Y896772D02*
G54D10*
D03*
X365522Y968772D02*
G54D10*
D03*
X352822Y968772D02*
G54D10*
D03*
X340122Y968772D02*
G54D10*
D03*
X327422Y968772D02*
G54D10*
D03*
X314722Y968772D02*
G54D10*
D03*
X263922Y968772D02*
G54D10*
D03*
X251222Y968772D02*
G54D10*
D03*
X238522Y968772D02*
G54D10*
D03*
X225822Y968772D02*
G54D10*
D03*
X213122Y968772D02*
G54D10*
D03*
X396081Y897169D02*
G54D10*
D03*
X408781Y897169D02*
G54D10*
D03*
X421481Y897169D02*
G54D10*
D03*
X434181Y897169D02*
G54D10*
D03*
X446881Y897169D02*
G54D10*
D03*
X497681Y897169D02*
G54D10*
D03*
X510381Y897169D02*
G54D10*
D03*
X523081Y897169D02*
G54D10*
D03*
X535781Y897169D02*
G54D10*
D03*
X548481Y897169D02*
G54D10*
D03*
X548481Y969169D02*
G54D10*
D03*
X535781Y969169D02*
G54D10*
D03*
X523081Y969169D02*
G54D10*
D03*
X510381Y969169D02*
G54D10*
D03*
X497681Y969169D02*
G54D10*
D03*
X446881Y969169D02*
G54D10*
D03*
X434181Y969169D02*
G54D10*
D03*
X421481Y969169D02*
G54D10*
D03*
X408781Y969169D02*
G54D10*
D03*
X396081Y969169D02*
G54D10*
D03*
X580231Y897169D02*
G54D10*
D03*
X592931Y897169D02*
G54D10*
D03*
X605631Y897169D02*
G54D10*
D03*
X618331Y897169D02*
G54D10*
D03*
X631031Y897169D02*
G54D10*
D03*
X681831Y897169D02*
G54D10*
D03*
X694531Y897169D02*
G54D10*
D03*
X707231Y897169D02*
G54D10*
D03*
X719931Y897169D02*
G54D10*
D03*
X732631Y897169D02*
G54D10*
D03*
X732631Y969169D02*
G54D10*
D03*
X719931Y969169D02*
G54D10*
D03*
X707231Y969169D02*
G54D10*
D03*
X694531Y969169D02*
G54D10*
D03*
X681831Y969169D02*
G54D10*
D03*
X631031Y969169D02*
G54D10*
D03*
X618331Y969169D02*
G54D10*
D03*
X605631Y969169D02*
G54D10*
D03*
X592931Y969169D02*
G54D10*
D03*
X580231Y969169D02*
G54D10*
D03*
X107553Y758825D02*
G54D11*
D03*
X107553Y768350D02*
G54D12*
D03*
X82153Y758825D02*
G54D11*
D03*
X82153Y768350D02*
G54D12*
D03*
X132953Y758825D02*
G54D11*
D03*
X132953Y768350D02*
G54D12*
D03*
X158353Y758825D02*
G54D11*
D03*
X158353Y768350D02*
G54D12*
D03*
X183753Y758825D02*
G54D11*
D03*
X183753Y768350D02*
G54D12*
D03*
X209153Y758825D02*
G54D11*
D03*
X209153Y768350D02*
G54D12*
D03*
X234553Y758825D02*
G54D11*
D03*
X234553Y768350D02*
G54D12*
D03*
X259953Y758825D02*
G54D11*
D03*
X259953Y768350D02*
G54D12*
D03*
X310753Y758825D02*
G54D11*
D03*
X310753Y768350D02*
G54D12*
D03*
X285353Y758825D02*
G54D11*
D03*
X285353Y768350D02*
G54D12*
D03*
X336153Y758825D02*
G54D11*
D03*
X336153Y768350D02*
G54D12*
D03*
X361553Y758825D02*
G54D11*
D03*
X361553Y768350D02*
G54D12*
D03*
X386953Y758825D02*
G54D11*
D03*
X386953Y768350D02*
G54D12*
D03*
X412353Y758825D02*
G54D11*
D03*
X412353Y768350D02*
G54D12*
D03*
X437753Y758825D02*
G54D11*
D03*
X437753Y768350D02*
G54D12*
D03*
X463153Y758825D02*
G54D11*
D03*
X463153Y768350D02*
G54D12*
D03*
X488553Y758825D02*
G54D11*
D03*
X488553Y768350D02*
G54D12*
D03*
X513953Y758825D02*
G54D11*
D03*
X513953Y768350D02*
G54D12*
D03*
X539353Y758825D02*
G54D11*
D03*
X539353Y768350D02*
G54D12*
D03*
X564753Y758825D02*
G54D11*
D03*
X564753Y768350D02*
G54D12*
D03*
X590153Y758825D02*
G54D11*
D03*
X590153Y768350D02*
G54D12*
D03*
X615553Y758825D02*
G54D11*
D03*
X615553Y768350D02*
G54D12*
D03*
X640953Y758825D02*
G54D11*
D03*
X640953Y768350D02*
G54D12*
D03*
X691753Y758825D02*
G54D11*
D03*
X691753Y768350D02*
G54D12*
D03*
X666353Y758825D02*
G54D11*
D03*
X666353Y768350D02*
G54D12*
D03*
X717153Y758825D02*
G54D11*
D03*
X717153Y768350D02*
G54D12*
D03*
X742553Y758825D02*
G54D11*
D03*
X742553Y768350D02*
G54D12*
D03*
X767953Y758825D02*
G54D11*
D03*
X767953Y768350D02*
G54D12*
D03*
X793353Y758825D02*
G54D11*
D03*
X793353Y768350D02*
G54D12*
D03*
X818753Y758825D02*
G54D11*
D03*
X818753Y768350D02*
G54D12*
D03*
X72628Y758825D02*
G54D12*
D03*
X825103Y758825D02*
G54D12*
D03*
X310753Y768350D02*
G54D12*
D03*
X285353Y768350D02*
G54D12*
D03*
X336153Y768350D02*
G54D12*
D03*
X361553Y768350D02*
G54D12*
D03*
X386953Y768350D02*
G54D12*
D03*
X412353Y768350D02*
G54D12*
D03*
X437753Y768350D02*
G54D12*
D03*
X463153Y768350D02*
G54D12*
D03*
X488553Y768350D02*
G54D12*
D03*
X513953Y768350D02*
G54D12*
D03*
X539353Y768350D02*
G54D12*
D03*
X564753Y768350D02*
G54D12*
D03*
X590153Y768350D02*
G54D12*
D03*
X615553Y768350D02*
G54D12*
D03*
X640953Y768350D02*
G54D12*
D03*
X691753Y768350D02*
G54D12*
D03*
X666353Y768350D02*
G54D12*
D03*
X717153Y768350D02*
G54D12*
D03*
X742553Y768350D02*
G54D12*
D03*
X767953Y768350D02*
G54D12*
D03*
X793353Y768350D02*
G54D12*
D03*
X818753Y768350D02*
G54D12*
D03*
X825103Y758825D02*
G54D12*
D03*
X53975Y950912D02*
G54D13*
D03*
G36*
X24575Y954912D02*
X32575Y954912D01*
X32575Y946912D01*
X24575Y946912D01*
X24575Y954912D01*
G37*
X41275Y915988D02*
G54D13*
D03*
X74612Y947738D02*
G54D13*
D03*
G36*
X70612Y929512D02*
X78612Y929512D01*
X78612Y921512D01*
X70612Y921512D01*
X70612Y929512D01*
G37*
X92075Y908050D02*
G54D13*
D03*
X92075Y887412D02*
G54D13*
D03*
X119062Y974725D02*
G54D13*
D03*
X115887Y955675D02*
G54D13*
D03*
X133350Y950912D02*
G54D13*
D03*
X150812Y950912D02*
G54D13*
D03*
X168275Y950912D02*
G54D13*
D03*
X187325Y950912D02*
G54D13*
D03*
X169862Y915988D02*
G54D13*
D03*
X153988Y915988D02*
G54D13*
D03*
X139700Y915988D02*
G54D13*
D03*
X119062Y895350D02*
G54D13*
D03*
X179388Y871538D02*
G54D13*
D03*
X174625Y854075D02*
G54D13*
D03*
X134938Y844550D02*
G54D13*
D03*
X114300Y847725D02*
G54D13*
D03*
G36*
X84900Y851725D02*
X92900Y851725D01*
X92900Y843725D01*
X84900Y843725D01*
X84900Y851725D01*
G37*
X88900Y823912D02*
G54D13*
D03*
X101600Y812800D02*
G54D13*
D03*
G36*
X130937Y826325D02*
X138937Y826325D01*
X138937Y818325D01*
X130937Y818325D01*
X130937Y826325D01*
G37*
X149225Y781050D02*
G54D13*
D03*
X160338Y792162D02*
G54D13*
D03*
X176212Y792162D02*
G54D13*
D03*
X192088Y812800D02*
G54D13*
D03*
X217488Y812800D02*
G54D13*
D03*
X234950Y812800D02*
G54D13*
D03*
X209153Y828675D02*
G54D13*
D03*
X192881Y848519D02*
G54D13*
D03*
X210344Y848519D02*
G54D13*
D03*
X228600Y848519D02*
G54D13*
D03*
X246062Y848519D02*
G54D13*
D03*
X225425Y915988D02*
G54D13*
D03*
X273844Y890588D02*
G54D13*
D03*
X288925Y895350D02*
G54D13*
D03*
X304006Y895350D02*
G54D13*
D03*
G36*
X208725Y954912D02*
X216725Y954912D01*
X216725Y946912D01*
X208725Y946912D01*
X208725Y954912D01*
G37*
X238125Y950912D02*
G54D13*
D03*
X257969Y947738D02*
G54D13*
D03*
G36*
X253969Y930306D02*
X261969Y930306D01*
X261969Y922306D01*
X253969Y922306D01*
X253969Y930306D01*
G37*
X302419Y973931D02*
G54D13*
D03*
X299244Y956469D02*
G54D13*
D03*
X316706Y950912D02*
G54D13*
D03*
X334169Y950912D02*
G54D13*
D03*
X352425Y950912D02*
G54D13*
D03*
X369888Y950912D02*
G54D13*
D03*
G36*
X392875Y954912D02*
X400875Y954912D01*
X400875Y946912D01*
X392875Y946912D01*
X392875Y954912D01*
G37*
X421481Y950912D02*
G54D13*
D03*
X442119Y946944D02*
G54D13*
D03*
G36*
X438119Y930306D02*
X446119Y930306D01*
X446119Y922306D01*
X438119Y922306D01*
X438119Y930306D01*
G37*
X500062Y950912D02*
G54D13*
D03*
X518319Y950912D02*
G54D13*
D03*
X535781Y950912D02*
G54D13*
D03*
X554038Y950912D02*
G54D13*
D03*
X486569Y973931D02*
G54D13*
D03*
X482600Y956469D02*
G54D13*
D03*
G36*
X576231Y954912D02*
X584231Y954912D01*
X584231Y946912D01*
X576231Y946912D01*
X576231Y954912D01*
G37*
X605631Y950912D02*
G54D13*
D03*
X625475Y947738D02*
G54D13*
D03*
G36*
X621475Y930306D02*
X629475Y930306D01*
X629475Y922306D01*
X621475Y922306D01*
X621475Y930306D01*
G37*
X684212Y950912D02*
G54D13*
D03*
X701675Y950912D02*
G54D13*
D03*
X719138Y950912D02*
G54D13*
D03*
X737394Y950912D02*
G54D13*
D03*
X669925Y973931D02*
G54D13*
D03*
X665956Y956469D02*
G54D13*
D03*
X764381Y965994D02*
G54D13*
D03*
G36*
X763556Y905700D02*
X771556Y905700D01*
X771556Y897700D01*
X763556Y897700D01*
X763556Y905700D01*
G37*
X831056Y931862D02*
G54D13*
D03*
X831850Y888206D02*
G54D13*
D03*
X856456Y888206D02*
G54D13*
D03*
X869156Y943769D02*
G54D13*
D03*
G36*
X865156Y927131D02*
X873156Y927131D01*
X873156Y919131D01*
X865156Y919131D01*
X865156Y927131D01*
G37*
X792956Y923131D02*
G54D13*
D03*
X738187Y915987D02*
G54D13*
D03*
X720725Y915988D02*
G54D13*
D03*
X703262Y915988D02*
G54D13*
D03*
X684212Y915988D02*
G54D13*
D03*
X592138Y915988D02*
G54D13*
D03*
X536575Y915988D02*
G54D13*
D03*
X519112Y915988D02*
G54D13*
D03*
X500062Y915988D02*
G54D13*
D03*
X409575Y915988D02*
G54D13*
D03*
X360362Y915988D02*
G54D13*
D03*
X342900Y915988D02*
G54D13*
D03*
X325438Y915988D02*
G54D13*
D03*
X666750Y895350D02*
G54D13*
D03*
X650875Y895350D02*
G54D13*
D03*
X482600Y895350D02*
G54D13*
D03*
X466725Y895350D02*
G54D13*
D03*
X457200Y885825D02*
G54D13*
D03*
X640556Y886619D02*
G54D13*
D03*
X742950Y887412D02*
G54D13*
D03*
X558800Y874712D02*
G54D13*
D03*
X579438Y847725D02*
G54D13*
D03*
X596900Y847725D02*
G54D13*
D03*
X614362Y847725D02*
G54D13*
D03*
X479425Y847725D02*
G54D13*
D03*
G36*
X461137Y851725D02*
X469137Y851725D01*
X469137Y843725D01*
X461137Y843725D01*
X461137Y851725D01*
G37*
X493712Y842962D02*
G54D13*
D03*
X538162Y849312D02*
G54D13*
D03*
X558800Y850900D02*
G54D13*
D03*
X514350Y839788D02*
G54D13*
D03*
G36*
X510350Y826325D02*
X518350Y826325D01*
X518350Y818325D01*
X510350Y818325D01*
X510350Y826325D01*
G37*
X631825Y847725D02*
G54D13*
D03*
G36*
X654812Y851725D02*
X662812Y851725D01*
X662812Y843725D01*
X654812Y843725D01*
X654812Y851725D01*
G37*
X684212Y847725D02*
G54D13*
D03*
X763588Y847725D02*
G54D13*
D03*
X781050Y847725D02*
G54D13*
D03*
X800100Y847725D02*
G54D13*
D03*
X815975Y847725D02*
G54D13*
D03*
X800100Y812800D02*
G54D13*
D03*
X781050Y812800D02*
G54D13*
D03*
X763588Y812800D02*
G54D13*
D03*
X749300Y871538D02*
G54D13*
D03*
X746125Y850900D02*
G54D13*
D03*
X704850Y844550D02*
G54D13*
D03*
G36*
X700850Y826325D02*
X708850Y826325D01*
X708850Y818325D01*
X700850Y818325D01*
X700850Y826325D01*
G37*
X825500Y812800D02*
G54D13*
D03*
X822325Y792162D02*
G54D13*
D03*
X749300Y792162D02*
G54D13*
D03*
X731838Y792162D02*
G54D13*
D03*
X719931Y785019D02*
G54D13*
D03*
X671512Y812800D02*
G54D13*
D03*
X647700Y790575D02*
G54D13*
D03*
X631825Y790575D02*
G54D13*
D03*
X615950Y812800D02*
G54D13*
D03*
X598488Y812800D02*
G54D13*
D03*
X581025Y812800D02*
G54D13*
D03*
X481012Y812800D02*
G54D13*
D03*
X555625Y792162D02*
G54D13*
D03*
X539750Y792162D02*
G54D13*
D03*
X530225Y782638D02*
G54D13*
D03*
X446088Y868362D02*
G54D13*
D03*
X442912Y792162D02*
G54D13*
D03*
X425450Y812800D02*
G54D13*
D03*
X404812Y812800D02*
G54D13*
D03*
X390525Y812800D02*
G54D13*
D03*
X292100Y812800D02*
G54D13*
D03*
G36*
X275400Y851725D02*
X283400Y851725D01*
X283400Y843725D01*
X275400Y843725D01*
X275400Y851725D01*
G37*
X304800Y847725D02*
G54D13*
D03*
X323850Y844550D02*
G54D13*
D03*
G36*
X319850Y826325D02*
X327850Y826325D01*
X327850Y818325D01*
X319850Y818325D01*
X319850Y826325D01*
G37*
X344488Y855662D02*
G54D13*
D03*
X354012Y869950D02*
G54D13*
D03*
X369888Y871538D02*
G54D13*
D03*
X368300Y850900D02*
G54D13*
D03*
X339725Y785019D02*
G54D13*
D03*
X352425Y792162D02*
G54D13*
D03*
X369888Y796925D02*
G54D13*
D03*
X400050Y847725D02*
G54D13*
D03*
X417512Y847725D02*
G54D13*
D03*
X436562Y847725D02*
G54D13*
D03*
X376237Y895350D02*
G54D13*
D03*
X192087Y895350D02*
G54D13*
D03*
X252412Y788988D02*
G54D13*
D03*
X268288Y787400D02*
G54D13*
D03*
X560387Y895350D02*
G54D13*
D03*
X71438Y792162D02*
G54D13*
D03*
G54D14*
X28575Y950912D02*
X28575Y968375D01*
X28972Y968772D01*
G54D14*
X53975Y950912D02*
X53975Y968375D01*
X54372Y968772D01*
G54D14*
X79772Y968772D02*
X79772Y952897D01*
X74612Y947738D01*
X88900Y933450D02*
G54D15*
D03*
X121444Y933450D02*
G54D15*
D03*
X273050Y933450D02*
G54D15*
D03*
X305594Y933450D02*
G54D15*
D03*
X455612Y933450D02*
G54D15*
D03*
X488156Y933450D02*
G54D15*
D03*
X639762Y933450D02*
G54D15*
D03*
X672306Y933450D02*
G54D15*
D03*
X719138Y830262D02*
G54D15*
D03*
X751681Y830262D02*
G54D15*
D03*
X528638Y830262D02*
G54D15*
D03*
X561181Y830262D02*
G54D15*
D03*
X338138Y830262D02*
G54D15*
D03*
X370681Y830262D02*
G54D15*
D03*
X149225Y830262D02*
G54D15*
D03*
X181769Y830262D02*
G54D15*
D03*
X764381Y950119D02*
G54D16*
D03*
X764381Y917575D02*
G54D16*
D03*
G54D14*
X88900Y847725D02*
X88900Y866378D01*
X88503Y866775D01*
G54D14*
X41672Y968772D02*
X41672Y948134D01*
X28575Y935038D01*
X28575Y897169D01*
X28972Y896772D01*
X28972Y883841D01*
X38100Y874712D01*
X61912Y874712D01*
X71438Y865188D01*
X71438Y792162D01*
G54D14*
X41275Y915988D02*
X41275Y897169D01*
X41672Y896772D01*
X41672Y883841D01*
X46038Y879475D01*
X66675Y879475D01*
X79375Y866775D01*
X79375Y782638D01*
X84138Y777875D01*
X98425Y777875D01*
X101600Y781050D01*
X101600Y794378D01*
X101203Y794775D01*
G54D14*
X149225Y781050D02*
X141288Y781050D01*
X139700Y782638D01*
X139700Y794378D01*
X139303Y794775D01*
G54D14*
X101600Y812800D02*
X101600Y795172D01*
X101203Y794775D01*
G54D14*
X101203Y866775D02*
X101203Y845741D01*
X88900Y833438D01*
X88900Y823912D01*
X88900Y795172D01*
X88503Y794775D01*
G54D14*
X160338Y792162D02*
X142875Y809625D01*
X117475Y809625D01*
X114300Y806450D01*
X114300Y795172D01*
X113903Y794775D01*
G54D14*
X107553Y768350D02*
X107553Y807641D01*
X114300Y814388D01*
X114300Y847725D01*
X114300Y866378D01*
X113903Y866775D01*
X113903Y881459D01*
X103188Y892175D01*
X103188Y911225D01*
X96838Y917575D01*
X68262Y917575D01*
X53975Y931862D01*
X53975Y950912D01*
G54D14*
X134938Y844550D02*
X139700Y849312D01*
X139700Y866378D01*
X139303Y866775D01*
G54D14*
X174625Y854075D02*
X180975Y847725D01*
X180975Y831056D01*
X181769Y830262D01*
G54D14*
X119062Y895350D02*
X129150Y895350D01*
X130572Y896772D01*
G54D14*
X119062Y895350D02*
X119062Y885825D01*
X120650Y884238D01*
X120650Y854075D01*
X122238Y852488D01*
X122238Y822325D01*
X130175Y814388D01*
X153988Y814388D01*
X176212Y792162D01*
X187491Y792162D01*
X190103Y794775D01*
G54D14*
X176212Y792162D02*
X176212Y786209D01*
X158353Y768350D01*
G54D14*
X209153Y768350D02*
X209153Y828675D01*
G54D14*
X139700Y915988D02*
X143272Y912416D01*
X143272Y896772D01*
X143272Y882650D01*
X162322Y863600D01*
X162322Y825500D01*
X175022Y812800D01*
X192088Y812800D01*
X198438Y812800D01*
X202803Y808434D01*
X202803Y794775D01*
X202803Y781447D01*
X198041Y776684D01*
X192088Y776684D01*
X183753Y768350D01*
G54D14*
X217488Y812800D02*
X217488Y810022D01*
X215503Y808038D01*
X215503Y794775D01*
X215503Y782638D01*
X221059Y777081D01*
X225822Y777081D01*
X234553Y768350D01*
G54D14*
X234950Y812800D02*
X233759Y812800D01*
X228600Y807641D01*
X228600Y795172D01*
X228203Y794775D01*
X228203Y783431D01*
X234553Y777081D01*
X251222Y777081D01*
X259953Y768350D01*
G54D14*
X252412Y788988D02*
X240903Y788988D01*
X240903Y794775D01*
G54D14*
X228600Y848519D02*
X228600Y866378D01*
X228203Y866775D01*
G54D14*
X192881Y848519D02*
X198041Y848519D01*
X202406Y852884D01*
X202406Y866378D01*
X202803Y866775D01*
X202803Y909638D01*
X178197Y934244D01*
X150019Y934244D01*
X133350Y950912D01*
X142875Y960438D01*
X142875Y968375D01*
X143272Y968772D01*
G54D14*
X155972Y968772D02*
X155972Y956072D01*
X150812Y950912D01*
G54D14*
X150812Y950912D02*
X161925Y939800D01*
X180181Y939800D01*
X207169Y912812D01*
X207169Y883841D01*
X215503Y875506D01*
X215503Y866775D01*
X215503Y853678D01*
X210344Y848519D01*
G54D14*
X121444Y933450D02*
X121444Y950119D01*
X115888Y955675D01*
G54D14*
X119062Y974725D02*
X130572Y974725D01*
X130572Y968772D01*
G54D14*
X119062Y974725D02*
X108347Y964009D01*
X108347Y922338D01*
X113506Y917178D01*
X129381Y917178D01*
X135334Y923131D01*
X174625Y923131D01*
X178197Y919559D01*
X178197Y912416D01*
X175419Y909638D01*
X175419Y875506D01*
X179388Y871538D01*
G54D14*
X155972Y896772D02*
X155972Y914003D01*
X153988Y915988D01*
G54D14*
X168672Y896772D02*
X168672Y914797D01*
X169862Y915988D01*
G54D14*
X54372Y896772D02*
X54372Y909241D01*
X56753Y911622D01*
X88503Y911622D01*
X92075Y908050D01*
G54D14*
X92075Y887412D02*
X79772Y887412D01*
X79772Y896772D01*
G54D14*
X181372Y968772D02*
X181372Y956866D01*
X187325Y950912D01*
G54D14*
X168672Y968772D02*
X168672Y951309D01*
X168275Y950912D01*
G54D14*
X213122Y968772D02*
X213122Y951309D01*
X212725Y950912D01*
G54D14*
X238522Y968772D02*
X238522Y951309D01*
X238125Y950912D01*
G54D14*
X225822Y968772D02*
X225822Y948928D01*
X213122Y936228D01*
X213122Y896772D01*
X213122Y889000D01*
X221853Y880269D01*
X221853Y852884D01*
X220662Y851694D01*
X220662Y840978D01*
X260350Y801291D01*
X260350Y784622D01*
X267891Y777081D01*
X294481Y777081D01*
X298450Y773112D01*
X305991Y773112D01*
X310753Y768350D01*
G54D14*
X279003Y866775D02*
X279003Y848122D01*
X279400Y847725D01*
G54D14*
X304403Y866775D02*
X304403Y848122D01*
X304800Y847725D01*
G54D14*
X329803Y866775D02*
X329803Y850503D01*
X323850Y844550D01*
G54D14*
X225822Y896772D02*
X225822Y915591D01*
X225425Y915988D01*
G54D14*
X327422Y896772D02*
X327422Y914003D01*
X325438Y915988D01*
G54D14*
X340122Y896772D02*
X340122Y913209D01*
X342900Y915988D01*
G54D14*
X304006Y895350D02*
X313300Y895350D01*
X314722Y896772D01*
G54D14*
X273844Y890588D02*
X264716Y890588D01*
X264716Y895978D01*
X263922Y896772D01*
G54D14*
X238522Y896772D02*
X238522Y910431D01*
X240506Y912416D01*
X271859Y912416D01*
X288925Y895350D01*
G54D14*
X257969Y926306D02*
X272256Y926306D01*
X272256Y932656D01*
X273050Y933450D01*
G54D14*
X305594Y933450D02*
X305594Y950119D01*
X299244Y956469D01*
G54D14*
X327422Y968772D02*
X327422Y955278D01*
X323056Y950912D01*
X316706Y950912D01*
G54D14*
X340122Y968772D02*
X340122Y956866D01*
X334169Y950912D01*
G54D14*
X352822Y968772D02*
X352822Y951309D01*
X352425Y950912D01*
X350838Y950912D01*
X333375Y933450D01*
X333375Y883444D01*
X337344Y879475D01*
X337344Y862806D01*
X344488Y855662D01*
G54D14*
X329803Y866775D02*
X329803Y875109D01*
X321469Y883444D01*
X321469Y908844D01*
X313531Y916781D01*
X254794Y916781D01*
X250825Y920750D01*
X250825Y940594D01*
X257969Y947738D01*
X263525Y953294D01*
X263525Y968375D01*
X263922Y968772D01*
G54D14*
X365522Y968772D02*
X365522Y955278D01*
X369888Y950912D01*
G54D14*
X302419Y973931D02*
X314325Y973931D01*
X314325Y969169D01*
X314722Y968772D01*
G54D14*
X352822Y896772D02*
X352822Y908447D01*
X360362Y915988D01*
G54D14*
X376238Y895350D02*
X366944Y895350D01*
X365522Y896772D01*
G54D14*
X340122Y896772D02*
X340122Y883841D01*
X342106Y881856D01*
X342106Y870744D01*
X354806Y858044D01*
X354806Y821531D01*
X362744Y813594D01*
X379412Y813594D01*
X386556Y820738D01*
X396875Y820738D01*
X404812Y812800D01*
X404812Y795966D01*
X406003Y794775D01*
G54D14*
X393303Y794775D02*
X393303Y810022D01*
X390525Y812800D01*
G54D14*
X418703Y794775D02*
X418703Y806053D01*
X425450Y812800D01*
G54D14*
X418703Y866775D02*
X418703Y848916D01*
X417512Y847725D01*
G54D14*
X431403Y866775D02*
X431403Y852884D01*
X436562Y847725D01*
G54D14*
X406003Y866775D02*
X406003Y853678D01*
X400050Y847725D01*
X401638Y847725D01*
X413544Y835819D01*
X413544Y808831D01*
X412750Y808038D01*
X412750Y768747D01*
X412353Y768350D01*
G54D14*
X369888Y796925D02*
X378453Y796925D01*
X380603Y794775D01*
G54D14*
X339725Y785019D02*
X330200Y785019D01*
X330200Y794378D01*
X329803Y794775D01*
G54D14*
X304403Y794775D02*
X304403Y806847D01*
X307975Y810419D01*
X334169Y810419D01*
X352425Y792162D01*
G54D14*
X291703Y794775D02*
X291703Y812403D01*
X292100Y812800D01*
G54D14*
X291703Y866775D02*
X291703Y840978D01*
X278606Y827881D01*
X278606Y795172D01*
X279003Y794775D01*
G54D14*
X240903Y866775D02*
X240903Y853678D01*
X246062Y848519D01*
G54D14*
X240903Y866775D02*
X240903Y878284D01*
X244475Y881856D01*
X270669Y881856D01*
X272256Y883444D01*
X295275Y883444D01*
X297656Y881062D01*
X297656Y852488D01*
X296862Y851694D01*
X296862Y835025D01*
X299244Y832644D01*
X299244Y808831D01*
X297656Y807244D01*
X297656Y781050D01*
X300831Y777875D01*
X326628Y777875D01*
X336153Y768350D01*
G54D14*
X344488Y855662D02*
X349250Y850900D01*
X349250Y812006D01*
X361156Y800100D01*
X361156Y768747D01*
X361553Y768350D01*
G54D14*
X370681Y830262D02*
X370681Y848519D01*
X368300Y850900D01*
G54D14*
X369888Y871538D02*
X381000Y871538D01*
X381000Y867172D01*
X380603Y866775D01*
G54D14*
X393303Y866775D02*
X393303Y879078D01*
X389731Y882650D01*
X370681Y882650D01*
X369094Y881062D01*
X365125Y881062D01*
X354012Y869950D01*
G54D14*
X446088Y868362D02*
X446088Y821531D01*
X450056Y817562D01*
X450056Y780653D01*
X437753Y768350D01*
G54D14*
X442912Y792162D02*
X434016Y792162D01*
X431403Y794775D01*
G54D14*
X447278Y896772D02*
X454191Y896772D01*
X457200Y893762D01*
X457200Y885825D01*
G54D14*
X482600Y895350D02*
X496656Y895350D01*
X498078Y896772D01*
G54D14*
X523478Y896772D02*
X523478Y911622D01*
X519112Y915988D01*
G54D14*
X536178Y896772D02*
X536178Y915591D01*
X536575Y915988D01*
G54D14*
X421878Y896772D02*
X421878Y910034D01*
X425450Y913606D01*
X448469Y913606D01*
X466725Y895350D01*
G54D14*
X409178Y896772D02*
X409178Y915591D01*
X409575Y915988D01*
G54D14*
X396478Y968772D02*
X396478Y951309D01*
X396875Y950912D01*
G54D14*
X421878Y968772D02*
X421878Y951309D01*
X421481Y950912D01*
G54D14*
X447278Y968772D02*
X447278Y952103D01*
X442119Y946944D01*
G54D14*
X442119Y926306D02*
X455612Y926306D01*
X455612Y933450D01*
G54D14*
X488156Y933450D02*
X488156Y950912D01*
X482600Y956469D01*
G54D14*
X409178Y968772D02*
X409178Y948928D01*
X396875Y936625D01*
X396875Y897169D01*
X396478Y896772D01*
X396478Y887809D01*
X401638Y882650D01*
X447675Y882650D01*
X457200Y873125D01*
G54D14*
X467916Y866775D02*
X467916Y850503D01*
X465138Y847725D01*
G54D14*
X480616Y866775D02*
X480616Y848916D01*
X479425Y847725D01*
X468312Y836612D01*
X468312Y795172D01*
X467916Y794775D01*
G54D14*
X480616Y794775D02*
X480616Y812403D01*
X481012Y812800D01*
G54D14*
X493316Y866775D02*
X493316Y843359D01*
X493712Y842962D01*
G54D14*
X518716Y866775D02*
X518716Y844153D01*
X514350Y839788D01*
X489744Y815181D01*
X489744Y810419D01*
X487362Y808038D01*
X487362Y780256D01*
X490538Y777081D01*
X505222Y777081D01*
X513953Y768350D01*
G54D14*
X518716Y794775D02*
X518716Y784622D01*
X520700Y782638D01*
X530225Y782638D01*
G54D14*
X493316Y794775D02*
X493316Y805259D01*
X498475Y810419D01*
X521494Y810419D01*
X539750Y792162D01*
G54D14*
X539353Y768350D02*
X539353Y773509D01*
X530225Y782638D01*
G54D14*
X488553Y768350D02*
X488156Y768350D01*
X474662Y781844D01*
X474662Y809028D01*
X472916Y810775D01*
X472916Y815816D01*
X483394Y826294D01*
X488156Y826294D01*
X512762Y850900D01*
X512762Y881062D01*
X514350Y882650D01*
X550862Y882650D01*
X558800Y874712D01*
G54D14*
X569516Y866775D02*
X569516Y872728D01*
X568325Y873919D01*
X559594Y873919D01*
X558800Y874712D01*
G54D14*
X561181Y830262D02*
X561181Y848519D01*
X558800Y850900D01*
G54D14*
X514350Y822325D02*
X527050Y822325D01*
X527050Y828675D01*
X528638Y830262D01*
G54D14*
X510778Y968772D02*
X510778Y956072D01*
X505619Y950912D01*
X500062Y950912D01*
G54D14*
X523478Y968772D02*
X523478Y956072D01*
X518319Y950912D01*
G54D14*
X536178Y968772D02*
X536178Y951309D01*
X535781Y950912D01*
G54D14*
X548878Y968772D02*
X548878Y956072D01*
X554038Y950912D01*
G54D14*
X486569Y973931D02*
X497681Y973931D01*
X497681Y969169D01*
X498078Y968772D01*
G54D14*
X582216Y866775D02*
X582216Y850503D01*
X579438Y847725D01*
G54D14*
X594916Y866775D02*
X594916Y849709D01*
X596900Y847725D01*
G54D14*
X607616Y866775D02*
X607616Y854472D01*
X614362Y847725D01*
G54D14*
X538162Y849312D02*
X547688Y839788D01*
X547688Y785416D01*
X564753Y768350D01*
G54D14*
X555625Y792162D02*
X566903Y792162D01*
X569516Y794775D01*
G54D14*
X582216Y794775D02*
X582216Y811609D01*
X581025Y812800D01*
G54D14*
X594916Y794775D02*
X594916Y809228D01*
X598488Y812800D01*
G54D14*
X607616Y794775D02*
X607616Y804466D01*
X615950Y812800D01*
G54D14*
X631825Y790575D02*
X620712Y790575D01*
X620712Y794378D01*
X620316Y794775D01*
G54D14*
X630634Y968772D02*
X630634Y952897D01*
X625475Y947738D01*
G54D14*
X605234Y968772D02*
X605234Y951309D01*
X605631Y950912D01*
G54D14*
X579834Y968772D02*
X579834Y951309D01*
X580231Y950912D01*
G54D14*
X592534Y968772D02*
X592534Y949722D01*
X579438Y936625D01*
X579438Y897169D01*
X579834Y896772D01*
X579834Y888603D01*
X585788Y882650D01*
X627062Y882650D01*
X639762Y869950D01*
X639762Y769541D01*
X640953Y768350D01*
G54D14*
X658416Y866775D02*
X658416Y848122D01*
X658812Y847725D01*
G54D14*
X683816Y866775D02*
X683816Y848122D01*
X684212Y847725D01*
G54D14*
X709216Y866775D02*
X709216Y848916D01*
X704850Y844550D01*
G54D14*
X671116Y866775D02*
X671116Y845741D01*
X658812Y833438D01*
X658812Y795172D01*
X658416Y794775D01*
X658416Y784622D01*
X665162Y777875D01*
X682228Y777875D01*
X691753Y768350D01*
G54D14*
X719931Y785019D02*
X708819Y785019D01*
X708819Y794378D01*
X709216Y794775D01*
G54D14*
X742553Y768350D02*
X742553Y781447D01*
X731838Y792162D01*
G54D14*
X683816Y794775D02*
X683816Y806847D01*
X687388Y810419D01*
X713581Y810419D01*
X731838Y792162D01*
G54D14*
X749300Y792162D02*
X757403Y792162D01*
X760016Y794775D01*
G54D14*
X772716Y794775D02*
X772716Y810022D01*
X769938Y812800D01*
X763588Y812800D01*
G54D14*
X785416Y794775D02*
X785416Y808434D01*
X781050Y812800D01*
G54D14*
X772716Y866775D02*
X772716Y856853D01*
X763588Y847725D01*
G54D14*
X785416Y866775D02*
X785416Y852091D01*
X781050Y847725D01*
G54D14*
X798116Y866775D02*
X798116Y849709D01*
X800100Y847725D01*
G54D14*
X810816Y866775D02*
X810816Y852884D01*
X815975Y847725D01*
G54D14*
X605234Y896772D02*
X605234Y910828D01*
X608012Y913606D01*
X632619Y913606D01*
X650875Y895350D01*
G54D14*
X666750Y895350D02*
X680012Y895350D01*
X681434Y896772D01*
G54D14*
X694134Y896772D02*
X694134Y912416D01*
X690562Y915988D01*
X684212Y915988D01*
G54D14*
X706834Y896772D02*
X706834Y912416D01*
X703262Y915988D01*
G54D14*
X732234Y896772D02*
X732234Y910034D01*
X738188Y915988D01*
G54D14*
X719534Y896772D02*
X719534Y914797D01*
X720725Y915988D01*
X729456Y924719D01*
X742156Y924719D01*
X746125Y920750D01*
X746125Y909638D01*
X762794Y892969D01*
X781050Y892969D01*
X792162Y881856D01*
X792162Y820738D01*
X800100Y812800D01*
G54D14*
X749300Y871538D02*
X759619Y871538D01*
X759619Y867172D01*
X760016Y866775D01*
G54D14*
X810816Y866775D02*
X810816Y881459D01*
X804862Y887412D01*
X793750Y887412D01*
X785812Y895350D01*
X785812Y929481D01*
X779462Y935831D01*
X752475Y935831D01*
X737394Y950912D01*
G54D14*
X732234Y968772D02*
X732234Y956072D01*
X737394Y950912D01*
G54D14*
X719534Y968772D02*
X719534Y951309D01*
X719138Y950912D01*
G54D14*
X706834Y968772D02*
X706834Y956072D01*
X701675Y950912D01*
G54D14*
X694134Y968772D02*
X694134Y954484D01*
X690562Y950912D01*
X684212Y950912D01*
G54D14*
X672306Y933450D02*
X672306Y950119D01*
X665956Y956469D01*
G54D14*
X669925Y973931D02*
X681831Y973931D01*
X681831Y969169D01*
X681434Y968772D01*
G54D14*
X592534Y896772D02*
X592534Y915591D01*
X592138Y915988D01*
G54D14*
X630634Y896772D02*
X638341Y896772D01*
X640556Y894556D01*
X640556Y886619D01*
G54D14*
X647700Y790575D02*
X647700Y879475D01*
X640556Y886619D01*
G54D14*
X620316Y866775D02*
X630238Y866775D01*
X631825Y865188D01*
X631825Y847725D01*
G54D14*
X463153Y768350D02*
X463153Y775891D01*
X457994Y781050D01*
X457994Y872331D01*
X457200Y873125D01*
G54D14*
X510778Y896772D02*
X510778Y912416D01*
X507206Y915988D01*
X500062Y915988D01*
G54D14*
X560388Y895350D02*
X550300Y895350D01*
X548878Y896772D01*
G54D14*
X742950Y887412D02*
X738188Y882650D01*
X738188Y798512D01*
X731838Y792162D01*
G54D14*
X751681Y830262D02*
X751681Y845344D01*
X746125Y850900D01*
G54D14*
X798116Y794775D02*
X798116Y810816D01*
X800100Y812800D01*
G54D14*
X822325Y792162D02*
X813428Y792162D01*
X810816Y794775D01*
G54D14*
X793353Y906072D02*
X793353Y922734D01*
X792956Y923131D01*
G54D14*
X806053Y906072D02*
X806053Y918766D01*
X801688Y923131D01*
X792956Y923131D01*
G54D14*
X869553Y906072D02*
X869553Y922734D01*
X869156Y923131D01*
G54D14*
X869553Y960834D02*
X869553Y944166D01*
X869156Y943769D01*
G54D14*
X844153Y960834D02*
X844153Y971153D01*
X846931Y973931D01*
X854075Y973931D01*
G54D14*
X856853Y960834D02*
X856853Y971153D01*
X854075Y973931D01*
G54D14*
X856853Y960834D02*
X856853Y906072D01*
X856853Y888603D01*
X856456Y888206D01*
G54D14*
X831453Y906072D02*
X831453Y888603D01*
X831850Y888206D01*
G54D14*
X844153Y906072D02*
X844153Y894159D01*
X838200Y888206D01*
X831850Y888206D01*
G54D14*
X818753Y906072D02*
X818753Y893366D01*
X823912Y888206D01*
X831850Y888206D01*
G54D14*
X831453Y960834D02*
X831453Y932259D01*
X831056Y931862D01*
G54D14*
X764381Y965994D02*
X764381Y950119D01*
G54D14*
X806053Y960834D02*
X806053Y937419D01*
X812403Y931069D01*
X812403Y890191D01*
X825103Y877491D01*
X825103Y813197D01*
X825500Y812800D01*
G54D14*
X824706Y979091D02*
X862806Y979091D01*
G54D14*
X869553Y960834D02*
X869553Y972344D01*
X862806Y979091D01*
G54D14*
X818753Y960834D02*
X818753Y973138D01*
X824706Y979091D01*
G54D14*
X767556Y901700D02*
X767556Y914400D01*
X764381Y917575D01*
G54D14*
X764381Y950119D02*
X779859Y950119D01*
G54D14*
X793353Y960834D02*
X785416Y960834D01*
X783431Y958850D01*
X783431Y953691D01*
X779859Y950119D01*
G54D14*
X74612Y925512D02*
X88900Y925512D01*
X88900Y933450D01*
G54D14*
X192088Y895350D02*
X182794Y895350D01*
X181372Y896772D01*
G54D14*
X323850Y822325D02*
X337344Y822325D01*
X337344Y829469D01*
X338138Y830262D01*
G54D14*
X134937Y822325D02*
X148431Y822325D01*
X148431Y829469D01*
X149225Y830262D01*
G54D14*
X625475Y926306D02*
X639762Y926306D01*
X639762Y933450D01*
G54D14*
X704850Y822325D02*
X719138Y822325D01*
X719138Y830262D01*
G54D17*
X179388Y871538D02*
X189706Y871538D01*
X189706Y867172D01*
X190103Y866775D01*
G54D14*
X268288Y787400D02*
X279400Y787400D01*
X279400Y794378D01*
X279003Y794775D01*
G54D14*
X671116Y794775D02*
X671116Y812403D01*
X671512Y812800D01*
M02*
