%FSLAX34Y34*%
%MOMM*%
%LNSMDMASK_BOTTOM*%
G71*
G01*
%ADD10R,1.600X2.000*%
%LPD*%
X107553Y758825D02*
G54D10*
D03*
X82153Y758825D02*
G54D10*
D03*
X132953Y758825D02*
G54D10*
D03*
X158353Y758825D02*
G54D10*
D03*
X183753Y758825D02*
G54D10*
D03*
X209153Y758825D02*
G54D10*
D03*
X234553Y758825D02*
G54D10*
D03*
X259953Y758825D02*
G54D10*
D03*
X310753Y758825D02*
G54D10*
D03*
X285353Y758825D02*
G54D10*
D03*
X336153Y758825D02*
G54D10*
D03*
X361553Y758825D02*
G54D10*
D03*
X386953Y758825D02*
G54D10*
D03*
X412353Y758825D02*
G54D10*
D03*
X437753Y758825D02*
G54D10*
D03*
X463153Y758825D02*
G54D10*
D03*
X488553Y758825D02*
G54D10*
D03*
X513953Y758825D02*
G54D10*
D03*
X539353Y758825D02*
G54D10*
D03*
X564753Y758825D02*
G54D10*
D03*
X590153Y758825D02*
G54D10*
D03*
X615553Y758825D02*
G54D10*
D03*
X640953Y758825D02*
G54D10*
D03*
X691753Y758825D02*
G54D10*
D03*
X666353Y758825D02*
G54D10*
D03*
X717153Y758825D02*
G54D10*
D03*
X742553Y758825D02*
G54D10*
D03*
X767953Y758825D02*
G54D10*
D03*
X793353Y758825D02*
G54D10*
D03*
X818753Y758825D02*
G54D10*
D03*
M02*
