; Drill file
; Format: 3.3 (000.000)
M48
METRIC
T01C0.4
T02C0.5
%
G05
G90
T01
X14920Y78100
X16030Y79220
X17620Y79220
X19210Y81280
X20920Y82870
X21750Y81280
X23500Y81280
X25240Y78900
X26830Y78740
X29210Y81280
X32380Y82230
X32380Y84460
X30480Y84770
X27940Y84770
X24610Y84850
X22860Y84850
X21030Y84850
X19290Y84850
X17460Y85410
X17940Y87150
X19210Y89540
X16990Y91600
X15400Y91600
X13970Y91600
X11910Y89540
X9210Y88740
X9210Y90800
X7460Y92550
X7460Y94770
X5400Y95090
X2860Y95090
X4130Y91600
X8890Y84770
X8890Y82390
X10160Y81280
X13490Y82230
X13490Y84460
X11430Y84770
X7140Y79220
X11590Y95570
X13340Y95090
X15080Y95090
X16830Y95090
X18730Y95090
X21270Y95090
X23810Y95090
X25800Y94770
X25800Y92630
X22540Y91600
X27380Y89060
X28890Y89540
X30400Y89540
X32540Y91600
X34290Y91600
X36040Y91600
X37620Y89540
X36990Y87150
X35400Y87000
X34450Y85570
X36830Y85090
X40000Y84770
X41750Y84770
X43660Y84770
X44610Y86840
X45720Y88580
X46670Y89540
X48260Y89540
X50010Y91600
X51910Y91600
X53660Y91600
X56040Y89540
X55880Y87470
X55880Y85090
X53820Y84930
X51440Y83980
X51440Y82230
X49370Y84300
X47940Y84770
X46510Y84770
X48100Y81280
X44290Y79220
X42540Y81280
X40480Y81280
X39050Y81280
X36990Y79690
X35240Y79220
X33970Y78500
X40960Y91600
X44210Y92630
X44210Y94690
X42150Y95090
X39690Y95090
X36990Y95090
X35240Y95090
X33420Y95090
X31670Y95090
X29920Y95650
X30240Y97390
X48260Y95650
X48660Y97390
X50010Y95090
X51830Y95090
X53580Y95090
X55400Y95090
X58020Y95090
X60560Y95090
X62550Y94770
X62550Y92630
X59210Y91600
X64060Y88660
X65090Y89540
X66680Y89540
X68420Y91600
X70330Y91600
X72070Y91600
X73820Y91600
X74300Y88740
X74930Y87150
X74610Y85090
X76360Y84770
X78100Y84770
X80010Y84770
X81600Y84770
X82550Y81280
X82230Y79220
X80010Y81280
X78100Y81280
X76360Y81280
X74930Y79220
X73180Y79220
X71990Y78500
X70480Y82230
X70480Y84460
X68420Y84770
X65880Y84770
X63180Y84770
X61440Y84770
X59690Y84770
X57940Y84770
X58100Y81280
X59850Y81280
X61600Y81280
X63180Y79060
X64770Y79060
X67150Y81280
X55560Y79220
X53980Y79220
X53020Y78260
X66600Y95650
X66990Y97390
X68420Y95090
X70170Y95090
X71910Y95090
X73740Y95090
X76440Y96600
X79300Y92310
X76760Y90170
X83180Y88820
X85650Y88820
X86920Y92310
X86920Y94380
X83110Y93190
X11910Y97470
T02
X7260Y75880
X8220Y76840
X10760Y76840
X13300Y76840
X15840Y76840
X18380Y76840
X20920Y76840
X23460Y76840
X26000Y76840
X28540Y76840
X31080Y76840
X33620Y76840
X36160Y76840
X38700Y76840
X41240Y76840
X43780Y76840
X46320Y76840
X48860Y76840
X51400Y76840
X53940Y76840
X56480Y76840
X59020Y76840
X61560Y76840
X64100Y76840
X66640Y76840
X69180Y76840
X71720Y76840
X74260Y76840
X76800Y76840
X79340Y76840
X81880Y76840
X82510Y75880
M30
