%FSLAX34Y34*%
%MOMM*%
%LNCOPPER_INNER1*%
G71*
G01*
%ADD10C,1.800*%
%ADD11C,1.600*%
%ADD12C,0.333*%
%ADD13C,0.267*%
%ADD14C,1.000*%
%ADD15C,0.800*%
%LPD*%
G36*
X0Y1000000D02*
X1600000Y1000000D01*
X1600000Y0D01*
X0Y0D01*
X0Y1000000D01*
G37*
%LPC*%
X107553Y768350D02*
G54D10*
D03*
X82153Y768350D02*
G54D10*
D03*
X132953Y768350D02*
G54D10*
D03*
X158353Y768350D02*
G54D10*
D03*
X183753Y768350D02*
G54D10*
D03*
X209153Y768350D02*
G54D10*
D03*
X234553Y768350D02*
G54D10*
D03*
X259953Y768350D02*
G54D10*
D03*
X310753Y768350D02*
G54D10*
D03*
X285353Y768350D02*
G54D10*
D03*
X336153Y768350D02*
G54D10*
D03*
X361553Y768350D02*
G54D10*
D03*
X386953Y768350D02*
G54D10*
D03*
X412353Y768350D02*
G54D10*
D03*
X437753Y768350D02*
G54D10*
D03*
X463153Y768350D02*
G54D10*
D03*
X488553Y768350D02*
G54D10*
D03*
X513953Y768350D02*
G54D10*
D03*
X539353Y768350D02*
G54D10*
D03*
X564753Y768350D02*
G54D10*
D03*
X590153Y768350D02*
G54D10*
D03*
X615553Y768350D02*
G54D10*
D03*
X640953Y768350D02*
G54D10*
D03*
X691753Y768350D02*
G54D10*
D03*
X666353Y768350D02*
G54D10*
D03*
X717153Y768350D02*
G54D10*
D03*
X742553Y768350D02*
G54D10*
D03*
X767953Y768350D02*
G54D10*
D03*
X793353Y768350D02*
G54D10*
D03*
X818753Y768350D02*
G54D10*
D03*
X72628Y758825D02*
G54D10*
D03*
X825103Y758825D02*
G54D10*
D03*
X310753Y768350D02*
G54D10*
D03*
X285353Y768350D02*
G54D10*
D03*
X336153Y768350D02*
G54D10*
D03*
X361553Y768350D02*
G54D10*
D03*
X386953Y768350D02*
G54D10*
D03*
X412353Y768350D02*
G54D10*
D03*
X437753Y768350D02*
G54D10*
D03*
X463153Y768350D02*
G54D10*
D03*
X488553Y768350D02*
G54D10*
D03*
X513953Y768350D02*
G54D10*
D03*
X539353Y768350D02*
G54D10*
D03*
X564753Y768350D02*
G54D10*
D03*
X590153Y768350D02*
G54D10*
D03*
X615553Y768350D02*
G54D10*
D03*
X640953Y768350D02*
G54D10*
D03*
X691753Y768350D02*
G54D10*
D03*
X666353Y768350D02*
G54D10*
D03*
X717153Y768350D02*
G54D10*
D03*
X742553Y768350D02*
G54D10*
D03*
X767953Y768350D02*
G54D10*
D03*
X793353Y768350D02*
G54D10*
D03*
X818753Y768350D02*
G54D10*
D03*
X825103Y758825D02*
G54D10*
D03*
X53975Y950912D02*
G54D11*
D03*
G36*
X20575Y958912D02*
X36575Y958912D01*
X36575Y942912D01*
X20575Y942912D01*
X20575Y958912D01*
G37*
X41275Y915988D02*
G54D11*
D03*
X74612Y947738D02*
G54D11*
D03*
G36*
X66612Y933512D02*
X82612Y933512D01*
X82612Y917512D01*
X66612Y917512D01*
X66612Y933512D01*
G37*
X92075Y908050D02*
G54D11*
D03*
X92075Y887412D02*
G54D11*
D03*
X119062Y974725D02*
G54D11*
D03*
X115887Y955675D02*
G54D11*
D03*
X133350Y950912D02*
G54D11*
D03*
X150812Y950912D02*
G54D11*
D03*
X168275Y950912D02*
G54D11*
D03*
X187325Y950912D02*
G54D11*
D03*
X169862Y915988D02*
G54D11*
D03*
X153988Y915988D02*
G54D11*
D03*
X139700Y915988D02*
G54D11*
D03*
X119062Y895350D02*
G54D11*
D03*
X179388Y871538D02*
G54D11*
D03*
X174625Y854075D02*
G54D11*
D03*
X134938Y844550D02*
G54D11*
D03*
X114300Y847725D02*
G54D11*
D03*
G36*
X80900Y855725D02*
X96900Y855725D01*
X96900Y839725D01*
X80900Y839725D01*
X80900Y855725D01*
G37*
X88900Y823912D02*
G54D11*
D03*
X101600Y812800D02*
G54D11*
D03*
G36*
X126937Y830325D02*
X142937Y830325D01*
X142937Y814325D01*
X126937Y814325D01*
X126937Y830325D01*
G37*
X149225Y781050D02*
G54D11*
D03*
X160338Y792162D02*
G54D11*
D03*
X176212Y792162D02*
G54D11*
D03*
X192088Y812800D02*
G54D11*
D03*
X217488Y812800D02*
G54D11*
D03*
X234950Y812800D02*
G54D11*
D03*
X209153Y828675D02*
G54D11*
D03*
X192881Y848519D02*
G54D11*
D03*
X210344Y848519D02*
G54D11*
D03*
X228600Y848519D02*
G54D11*
D03*
X246062Y848519D02*
G54D11*
D03*
X225425Y915988D02*
G54D11*
D03*
X273844Y890588D02*
G54D11*
D03*
X288925Y895350D02*
G54D11*
D03*
X304006Y895350D02*
G54D11*
D03*
G36*
X204725Y958912D02*
X220725Y958912D01*
X220725Y942912D01*
X204725Y942912D01*
X204725Y958912D01*
G37*
X238125Y950912D02*
G54D11*
D03*
X257969Y947738D02*
G54D11*
D03*
G36*
X249969Y934306D02*
X265969Y934306D01*
X265969Y918306D01*
X249969Y918306D01*
X249969Y934306D01*
G37*
X302419Y973931D02*
G54D11*
D03*
X299244Y956469D02*
G54D11*
D03*
X316706Y950912D02*
G54D11*
D03*
X334169Y950912D02*
G54D11*
D03*
X352425Y950912D02*
G54D11*
D03*
X369888Y950912D02*
G54D11*
D03*
G36*
X388875Y958912D02*
X404875Y958912D01*
X404875Y942912D01*
X388875Y942912D01*
X388875Y958912D01*
G37*
X421481Y950912D02*
G54D11*
D03*
X442119Y946944D02*
G54D11*
D03*
G36*
X434119Y934306D02*
X450119Y934306D01*
X450119Y918306D01*
X434119Y918306D01*
X434119Y934306D01*
G37*
X500062Y950912D02*
G54D11*
D03*
X518319Y950912D02*
G54D11*
D03*
X535781Y950912D02*
G54D11*
D03*
X554038Y950912D02*
G54D11*
D03*
X486569Y973931D02*
G54D11*
D03*
X482600Y956469D02*
G54D11*
D03*
G36*
X572231Y958912D02*
X588231Y958912D01*
X588231Y942912D01*
X572231Y942912D01*
X572231Y958912D01*
G37*
X605631Y950912D02*
G54D11*
D03*
X625475Y947738D02*
G54D11*
D03*
G36*
X617475Y934306D02*
X633475Y934306D01*
X633475Y918306D01*
X617475Y918306D01*
X617475Y934306D01*
G37*
X684212Y950912D02*
G54D11*
D03*
X701675Y950912D02*
G54D11*
D03*
X719138Y950912D02*
G54D11*
D03*
X737394Y950912D02*
G54D11*
D03*
X669925Y973931D02*
G54D11*
D03*
X665956Y956469D02*
G54D11*
D03*
X764381Y965994D02*
G54D11*
D03*
G36*
X759556Y909700D02*
X775556Y909700D01*
X775556Y893700D01*
X759556Y893700D01*
X759556Y909700D01*
G37*
X831056Y931862D02*
G54D11*
D03*
X831850Y888206D02*
G54D11*
D03*
X856456Y888206D02*
G54D11*
D03*
X869156Y943769D02*
G54D11*
D03*
G36*
X861156Y931131D02*
X877156Y931131D01*
X877156Y915131D01*
X861156Y915131D01*
X861156Y931131D01*
G37*
X792956Y923131D02*
G54D11*
D03*
X738187Y915987D02*
G54D11*
D03*
X720725Y915988D02*
G54D11*
D03*
X703262Y915988D02*
G54D11*
D03*
X684212Y915988D02*
G54D11*
D03*
X592138Y915988D02*
G54D11*
D03*
X536575Y915988D02*
G54D11*
D03*
X519112Y915988D02*
G54D11*
D03*
X500062Y915988D02*
G54D11*
D03*
X409575Y915988D02*
G54D11*
D03*
X360362Y915988D02*
G54D11*
D03*
X342900Y915988D02*
G54D11*
D03*
X325438Y915988D02*
G54D11*
D03*
X666750Y895350D02*
G54D11*
D03*
X650875Y895350D02*
G54D11*
D03*
X482600Y895350D02*
G54D11*
D03*
X466725Y895350D02*
G54D11*
D03*
X457200Y885825D02*
G54D11*
D03*
X640556Y886619D02*
G54D11*
D03*
X742950Y887412D02*
G54D11*
D03*
X558800Y874712D02*
G54D11*
D03*
X579438Y847725D02*
G54D11*
D03*
X596900Y847725D02*
G54D11*
D03*
X614362Y847725D02*
G54D11*
D03*
X479425Y847725D02*
G54D11*
D03*
G36*
X457137Y855725D02*
X473137Y855725D01*
X473137Y839725D01*
X457137Y839725D01*
X457137Y855725D01*
G37*
X493712Y842962D02*
G54D11*
D03*
X538162Y849312D02*
G54D11*
D03*
X558800Y850900D02*
G54D11*
D03*
X514350Y839788D02*
G54D11*
D03*
G36*
X506350Y830325D02*
X522350Y830325D01*
X522350Y814325D01*
X506350Y814325D01*
X506350Y830325D01*
G37*
X631825Y847725D02*
G54D11*
D03*
G36*
X650812Y855725D02*
X666812Y855725D01*
X666812Y839725D01*
X650812Y839725D01*
X650812Y855725D01*
G37*
X684212Y847725D02*
G54D11*
D03*
X763588Y847725D02*
G54D11*
D03*
X781050Y847725D02*
G54D11*
D03*
X800100Y847725D02*
G54D11*
D03*
X815975Y847725D02*
G54D11*
D03*
X800100Y812800D02*
G54D11*
D03*
X781050Y812800D02*
G54D11*
D03*
X763588Y812800D02*
G54D11*
D03*
X749300Y871538D02*
G54D11*
D03*
X746125Y850900D02*
G54D11*
D03*
X704850Y844550D02*
G54D11*
D03*
G36*
X696850Y830325D02*
X712850Y830325D01*
X712850Y814325D01*
X696850Y814325D01*
X696850Y830325D01*
G37*
X825500Y812800D02*
G54D11*
D03*
X822325Y792162D02*
G54D11*
D03*
X749300Y792162D02*
G54D11*
D03*
X731838Y792162D02*
G54D11*
D03*
X719931Y785019D02*
G54D11*
D03*
X671512Y812800D02*
G54D11*
D03*
X647700Y790575D02*
G54D11*
D03*
X631825Y790575D02*
G54D11*
D03*
X615950Y812800D02*
G54D11*
D03*
X598488Y812800D02*
G54D11*
D03*
X581025Y812800D02*
G54D11*
D03*
X481012Y812800D02*
G54D11*
D03*
X555625Y792162D02*
G54D11*
D03*
X539750Y792162D02*
G54D11*
D03*
X530225Y782638D02*
G54D11*
D03*
X446088Y868362D02*
G54D11*
D03*
X442912Y792162D02*
G54D11*
D03*
X425450Y812800D02*
G54D11*
D03*
X404812Y812800D02*
G54D11*
D03*
X390525Y812800D02*
G54D11*
D03*
X292100Y812800D02*
G54D11*
D03*
G36*
X271400Y855725D02*
X287400Y855725D01*
X287400Y839725D01*
X271400Y839725D01*
X271400Y855725D01*
G37*
X304800Y847725D02*
G54D11*
D03*
X323850Y844550D02*
G54D11*
D03*
G36*
X315850Y830325D02*
X331850Y830325D01*
X331850Y814325D01*
X315850Y814325D01*
X315850Y830325D01*
G37*
X344488Y855662D02*
G54D11*
D03*
X354012Y869950D02*
G54D11*
D03*
X369888Y871538D02*
G54D11*
D03*
X368300Y850900D02*
G54D11*
D03*
X339725Y785019D02*
G54D11*
D03*
X352425Y792162D02*
G54D11*
D03*
X369888Y796925D02*
G54D11*
D03*
X400050Y847725D02*
G54D11*
D03*
X417512Y847725D02*
G54D11*
D03*
X436562Y847725D02*
G54D11*
D03*
X376237Y895350D02*
G54D11*
D03*
X192087Y895350D02*
G54D11*
D03*
X252412Y788988D02*
G54D11*
D03*
X268288Y787400D02*
G54D11*
D03*
X560387Y895350D02*
G54D11*
D03*
X71438Y792162D02*
G54D11*
D03*
%LPD*%
G54D12*
G54D12*
G54D12*
G36*
X283686Y768350D02*
X283686Y777850D01*
X287020Y777850D01*
X287020Y768350D01*
X283686Y768350D01*
G37*
G36*
X284174Y769528D02*
X290892Y776246D01*
X293249Y773889D01*
X286532Y767172D01*
X284174Y769528D01*
G37*
G36*
X285353Y770017D02*
X294853Y770017D01*
X294853Y766683D01*
X285353Y766683D01*
X285353Y770017D01*
G37*
G36*
X286532Y769528D02*
X293249Y762811D01*
X290892Y760454D01*
X284174Y767172D01*
X286532Y769528D01*
G37*
G36*
X287020Y768350D02*
X287020Y758850D01*
X283686Y758850D01*
X283686Y768350D01*
X287020Y768350D01*
G37*
G36*
X286532Y767172D02*
X279814Y760454D01*
X277457Y762811D01*
X284174Y769528D01*
X286532Y767172D01*
G37*
G36*
X285353Y766683D02*
X275853Y766683D01*
X275853Y770017D01*
X285353Y770017D01*
X285353Y766683D01*
G37*
G36*
X284174Y767172D02*
X277457Y773889D01*
X279814Y776246D01*
X286532Y769528D01*
X284174Y767172D01*
G37*
G54D12*
G36*
X613886Y768350D02*
X613886Y777850D01*
X617220Y777850D01*
X617220Y768350D01*
X613886Y768350D01*
G37*
G36*
X614374Y769529D02*
X621092Y776246D01*
X623449Y773889D01*
X616732Y767171D01*
X614374Y769529D01*
G37*
G36*
X615553Y770017D02*
X625053Y770017D01*
X625053Y766683D01*
X615553Y766683D01*
X615553Y770017D01*
G37*
G36*
X616732Y769529D02*
X623449Y762811D01*
X621092Y760454D01*
X614374Y767171D01*
X616732Y769529D01*
G37*
G36*
X617220Y768350D02*
X617220Y758850D01*
X613886Y758850D01*
X613886Y768350D01*
X617220Y768350D01*
G37*
G36*
X616732Y767171D02*
X610014Y760454D01*
X607657Y762811D01*
X614374Y769529D01*
X616732Y767171D01*
G37*
G36*
X615553Y766683D02*
X606053Y766683D01*
X606053Y770017D01*
X615553Y770017D01*
X615553Y766683D01*
G37*
G36*
X614374Y767171D02*
X607657Y773889D01*
X610014Y776246D01*
X616732Y769529D01*
X614374Y767171D01*
G37*
G54D12*
G54D12*
G54D13*
G36*
X27242Y950912D02*
X27242Y959412D01*
X29908Y959412D01*
X29908Y950912D01*
X27242Y950912D01*
G37*
G36*
X27632Y951855D02*
X35986Y960208D01*
X37871Y958323D01*
X29518Y949969D01*
X27632Y951855D01*
G37*
G36*
X28575Y952245D02*
X37075Y952245D01*
X37075Y949579D01*
X28575Y949579D01*
X28575Y952245D01*
G37*
G36*
X29518Y951855D02*
X37871Y943501D01*
X35986Y941616D01*
X27632Y949969D01*
X29518Y951855D01*
G37*
G36*
X29908Y950912D02*
X29908Y942412D01*
X27242Y942412D01*
X27242Y950912D01*
X29908Y950912D01*
G37*
G36*
X29518Y949969D02*
X21164Y941616D01*
X19279Y943501D01*
X27632Y951855D01*
X29518Y949969D01*
G37*
G36*
X28575Y949579D02*
X20075Y949579D01*
X20075Y952245D01*
X28575Y952245D01*
X28575Y949579D01*
G37*
G36*
X27632Y949969D02*
X19279Y958323D01*
X21164Y960208D01*
X29518Y951855D01*
X27632Y949969D01*
G37*
G54D13*
G36*
X73279Y925512D02*
X73279Y934012D01*
X75945Y934012D01*
X75945Y925512D01*
X73279Y925512D01*
G37*
G36*
X73669Y926455D02*
X82023Y934808D01*
X83908Y932923D01*
X75555Y924569D01*
X73669Y926455D01*
G37*
G36*
X74612Y926845D02*
X83112Y926845D01*
X83112Y924179D01*
X74612Y924179D01*
X74612Y926845D01*
G37*
G36*
X75555Y926455D02*
X83908Y918101D01*
X82023Y916216D01*
X73669Y924569D01*
X75555Y926455D01*
G37*
G36*
X75945Y925512D02*
X75945Y917012D01*
X73279Y917012D01*
X73279Y925512D01*
X75945Y925512D01*
G37*
G36*
X75555Y924569D02*
X67201Y916216D01*
X65316Y918101D01*
X73669Y926455D01*
X75555Y924569D01*
G37*
G36*
X74612Y924179D02*
X66112Y924179D01*
X66112Y926845D01*
X74612Y926845D01*
X74612Y924179D01*
G37*
G36*
X73669Y924569D02*
X65316Y932923D01*
X67201Y934808D01*
X75555Y926455D01*
X73669Y924569D01*
G37*
G54D13*
G54D13*
G54D13*
G36*
X87567Y847725D02*
X87567Y856225D01*
X90233Y856225D01*
X90233Y847725D01*
X87567Y847725D01*
G37*
G36*
X87957Y848668D02*
X96311Y857021D01*
X98196Y855136D01*
X89843Y846782D01*
X87957Y848668D01*
G37*
G36*
X88900Y849058D02*
X97400Y849058D01*
X97400Y846392D01*
X88900Y846392D01*
X88900Y849058D01*
G37*
G36*
X89843Y848668D02*
X98196Y840314D01*
X96311Y838429D01*
X87957Y846782D01*
X89843Y848668D01*
G37*
G36*
X90233Y847725D02*
X90233Y839225D01*
X87567Y839225D01*
X87567Y847725D01*
X90233Y847725D01*
G37*
G36*
X89843Y846782D02*
X81489Y838429D01*
X79604Y840314D01*
X87957Y848668D01*
X89843Y846782D01*
G37*
G36*
X88900Y846392D02*
X80400Y846392D01*
X80400Y849058D01*
X88900Y849058D01*
X88900Y846392D01*
G37*
G36*
X87957Y846782D02*
X79604Y855136D01*
X81489Y857021D01*
X89843Y848668D01*
X87957Y846782D01*
G37*
G54D13*
G36*
X133604Y822325D02*
X133604Y830825D01*
X136270Y830825D01*
X136270Y822325D01*
X133604Y822325D01*
G37*
G36*
X133994Y823268D02*
X142348Y831621D01*
X144233Y829736D01*
X135880Y821382D01*
X133994Y823268D01*
G37*
G36*
X134937Y823658D02*
X143437Y823658D01*
X143437Y820992D01*
X134937Y820992D01*
X134937Y823658D01*
G37*
G36*
X135880Y823268D02*
X144233Y814914D01*
X142348Y813029D01*
X133994Y821382D01*
X135880Y823268D01*
G37*
G36*
X136270Y822325D02*
X136270Y813825D01*
X133604Y813825D01*
X133604Y822325D01*
X136270Y822325D01*
G37*
G36*
X135880Y821382D02*
X127526Y813029D01*
X125641Y814914D01*
X133994Y823268D01*
X135880Y821382D01*
G37*
G36*
X134937Y820992D02*
X126437Y820992D01*
X126437Y823658D01*
X134937Y823658D01*
X134937Y820992D01*
G37*
G36*
X133994Y821382D02*
X125641Y829736D01*
X127526Y831621D01*
X135880Y823268D01*
X133994Y821382D01*
G37*
G54D13*
G36*
X211392Y950912D02*
X211392Y959412D01*
X214058Y959412D01*
X214058Y950912D01*
X211392Y950912D01*
G37*
G36*
X211782Y951855D02*
X220136Y960208D01*
X222021Y958323D01*
X213668Y949969D01*
X211782Y951855D01*
G37*
G36*
X212725Y952245D02*
X221225Y952245D01*
X221225Y949579D01*
X212725Y949579D01*
X212725Y952245D01*
G37*
G36*
X213668Y951855D02*
X222021Y943501D01*
X220136Y941616D01*
X211782Y949969D01*
X213668Y951855D01*
G37*
G36*
X214058Y950912D02*
X214058Y942412D01*
X211392Y942412D01*
X211392Y950912D01*
X214058Y950912D01*
G37*
G36*
X213668Y949969D02*
X205314Y941616D01*
X203429Y943501D01*
X211782Y951855D01*
X213668Y949969D01*
G37*
G36*
X212725Y949579D02*
X204225Y949579D01*
X204225Y952245D01*
X212725Y952245D01*
X212725Y949579D01*
G37*
G36*
X211782Y949969D02*
X203429Y958323D01*
X205314Y960208D01*
X213668Y951855D01*
X211782Y949969D01*
G37*
G54D13*
G36*
X256636Y926306D02*
X256636Y934806D01*
X259302Y934806D01*
X259302Y926306D01*
X256636Y926306D01*
G37*
G36*
X257026Y927249D02*
X265380Y935602D01*
X267265Y933717D01*
X258912Y925363D01*
X257026Y927249D01*
G37*
G36*
X257969Y927639D02*
X266469Y927639D01*
X266469Y924973D01*
X257969Y924973D01*
X257969Y927639D01*
G37*
G36*
X258912Y927249D02*
X267265Y918895D01*
X265380Y917010D01*
X257026Y925363D01*
X258912Y927249D01*
G37*
G36*
X259302Y926306D02*
X259302Y917806D01*
X256636Y917806D01*
X256636Y926306D01*
X259302Y926306D01*
G37*
G36*
X258912Y925363D02*
X250558Y917010D01*
X248673Y918895D01*
X257026Y927249D01*
X258912Y925363D01*
G37*
G36*
X257969Y924973D02*
X249469Y924973D01*
X249469Y927639D01*
X257969Y927639D01*
X257969Y924973D01*
G37*
G36*
X257026Y925363D02*
X248673Y933717D01*
X250558Y935602D01*
X258912Y927249D01*
X257026Y925363D01*
G37*
G54D13*
G54D13*
G36*
X395542Y950912D02*
X395542Y959412D01*
X398208Y959412D01*
X398208Y950912D01*
X395542Y950912D01*
G37*
G36*
X395932Y951855D02*
X404286Y960208D01*
X406171Y958323D01*
X397818Y949969D01*
X395932Y951855D01*
G37*
G36*
X396875Y952245D02*
X405375Y952245D01*
X405375Y949579D01*
X396875Y949579D01*
X396875Y952245D01*
G37*
G36*
X397818Y951855D02*
X406171Y943501D01*
X404286Y941616D01*
X395932Y949969D01*
X397818Y951855D01*
G37*
G36*
X398208Y950912D02*
X398208Y942412D01*
X395542Y942412D01*
X395542Y950912D01*
X398208Y950912D01*
G37*
G36*
X397818Y949969D02*
X389464Y941616D01*
X387579Y943501D01*
X395932Y951855D01*
X397818Y949969D01*
G37*
G36*
X396875Y949579D02*
X388375Y949579D01*
X388375Y952245D01*
X396875Y952245D01*
X396875Y949579D01*
G37*
G36*
X395932Y949969D02*
X387579Y958323D01*
X389464Y960208D01*
X397818Y951855D01*
X395932Y949969D01*
G37*
G54D13*
G36*
X440786Y926306D02*
X440786Y934806D01*
X443452Y934806D01*
X443452Y926306D01*
X440786Y926306D01*
G37*
G36*
X441176Y927249D02*
X449530Y935602D01*
X451415Y933717D01*
X443062Y925363D01*
X441176Y927249D01*
G37*
G36*
X442119Y927639D02*
X450619Y927639D01*
X450619Y924973D01*
X442119Y924973D01*
X442119Y927639D01*
G37*
G36*
X443062Y927249D02*
X451415Y918895D01*
X449530Y917010D01*
X441176Y925363D01*
X443062Y927249D01*
G37*
G36*
X443452Y926306D02*
X443452Y917806D01*
X440786Y917806D01*
X440786Y926306D01*
X443452Y926306D01*
G37*
G36*
X443062Y925363D02*
X434708Y917010D01*
X432823Y918895D01*
X441176Y927249D01*
X443062Y925363D01*
G37*
G36*
X442119Y924973D02*
X433619Y924973D01*
X433619Y927639D01*
X442119Y927639D01*
X442119Y924973D01*
G37*
G36*
X441176Y925363D02*
X432823Y933717D01*
X434708Y935602D01*
X443062Y927249D01*
X441176Y925363D01*
G37*
G54D13*
G54D13*
G36*
X578898Y950912D02*
X578898Y959412D01*
X581564Y959412D01*
X581564Y950912D01*
X578898Y950912D01*
G37*
G36*
X579288Y951855D02*
X587642Y960208D01*
X589527Y958323D01*
X581174Y949969D01*
X579288Y951855D01*
G37*
G36*
X580231Y952245D02*
X588731Y952245D01*
X588731Y949579D01*
X580231Y949579D01*
X580231Y952245D01*
G37*
G36*
X581174Y951855D02*
X589527Y943501D01*
X587642Y941616D01*
X579288Y949969D01*
X581174Y951855D01*
G37*
G36*
X581564Y950912D02*
X581564Y942412D01*
X578898Y942412D01*
X578898Y950912D01*
X581564Y950912D01*
G37*
G36*
X581174Y949969D02*
X572820Y941616D01*
X570935Y943501D01*
X579288Y951855D01*
X581174Y949969D01*
G37*
G36*
X580231Y949579D02*
X571731Y949579D01*
X571731Y952245D01*
X580231Y952245D01*
X580231Y949579D01*
G37*
G36*
X579288Y949969D02*
X570935Y958323D01*
X572820Y960208D01*
X581174Y951855D01*
X579288Y949969D01*
G37*
G54D13*
G36*
X624142Y926306D02*
X624142Y934806D01*
X626808Y934806D01*
X626808Y926306D01*
X624142Y926306D01*
G37*
G36*
X624532Y927249D02*
X632886Y935602D01*
X634771Y933717D01*
X626418Y925363D01*
X624532Y927249D01*
G37*
G36*
X625475Y927639D02*
X633975Y927639D01*
X633975Y924973D01*
X625475Y924973D01*
X625475Y927639D01*
G37*
G36*
X626418Y927249D02*
X634771Y918895D01*
X632886Y917010D01*
X624532Y925363D01*
X626418Y927249D01*
G37*
G36*
X626808Y926306D02*
X626808Y917806D01*
X624142Y917806D01*
X624142Y926306D01*
X626808Y926306D01*
G37*
G36*
X626418Y925363D02*
X618064Y917010D01*
X616179Y918895D01*
X624532Y927249D01*
X626418Y925363D01*
G37*
G36*
X625475Y924973D02*
X616975Y924973D01*
X616975Y927639D01*
X625475Y927639D01*
X625475Y924973D01*
G37*
G36*
X624532Y925363D02*
X616179Y933717D01*
X618064Y935602D01*
X626418Y927249D01*
X624532Y925363D01*
G37*
G54D13*
G54D13*
G54D13*
G36*
X766223Y901700D02*
X766223Y910200D01*
X768889Y910200D01*
X768889Y901700D01*
X766223Y901700D01*
G37*
G36*
X766613Y902643D02*
X774967Y910996D01*
X776852Y909111D01*
X768499Y900757D01*
X766613Y902643D01*
G37*
G36*
X767556Y903033D02*
X776056Y903033D01*
X776056Y900367D01*
X767556Y900367D01*
X767556Y903033D01*
G37*
G36*
X768499Y902643D02*
X776852Y894289D01*
X774967Y892404D01*
X766613Y900757D01*
X768499Y902643D01*
G37*
G36*
X768889Y901700D02*
X768889Y893200D01*
X766223Y893200D01*
X766223Y901700D01*
X768889Y901700D01*
G37*
G36*
X768499Y900757D02*
X760145Y892404D01*
X758260Y894289D01*
X766613Y902643D01*
X768499Y900757D01*
G37*
G36*
X767556Y900367D02*
X759056Y900367D01*
X759056Y903033D01*
X767556Y903033D01*
X767556Y900367D01*
G37*
G36*
X766613Y900757D02*
X758260Y909111D01*
X760145Y910996D01*
X768499Y902643D01*
X766613Y900757D01*
G37*
G54D13*
G36*
X867823Y923131D02*
X867823Y931631D01*
X870489Y931631D01*
X870489Y923131D01*
X867823Y923131D01*
G37*
G36*
X868213Y924074D02*
X876567Y932427D01*
X878452Y930542D01*
X870099Y922188D01*
X868213Y924074D01*
G37*
G36*
X869156Y924464D02*
X877656Y924464D01*
X877656Y921798D01*
X869156Y921798D01*
X869156Y924464D01*
G37*
G36*
X870099Y924074D02*
X878452Y915720D01*
X876567Y913835D01*
X868213Y922188D01*
X870099Y924074D01*
G37*
G36*
X870489Y923131D02*
X870489Y914631D01*
X867823Y914631D01*
X867823Y923131D01*
X870489Y923131D01*
G37*
G36*
X870099Y922188D02*
X861745Y913835D01*
X859860Y915720D01*
X868213Y924074D01*
X870099Y922188D01*
G37*
G36*
X869156Y921798D02*
X860656Y921798D01*
X860656Y924464D01*
X869156Y924464D01*
X869156Y921798D01*
G37*
G36*
X868213Y922188D02*
X859860Y930542D01*
X861745Y932427D01*
X870099Y924074D01*
X868213Y922188D01*
G37*
G54D13*
G54D13*
G36*
X463804Y847725D02*
X463804Y856225D01*
X466470Y856225D01*
X466470Y847725D01*
X463804Y847725D01*
G37*
G36*
X464194Y848668D02*
X472548Y857021D01*
X474433Y855136D01*
X466080Y846782D01*
X464194Y848668D01*
G37*
G36*
X465137Y849058D02*
X473637Y849058D01*
X473637Y846392D01*
X465137Y846392D01*
X465137Y849058D01*
G37*
G36*
X466080Y848668D02*
X474433Y840314D01*
X472548Y838429D01*
X464194Y846782D01*
X466080Y848668D01*
G37*
G36*
X466470Y847725D02*
X466470Y839225D01*
X463804Y839225D01*
X463804Y847725D01*
X466470Y847725D01*
G37*
G36*
X466080Y846782D02*
X457726Y838429D01*
X455841Y840314D01*
X464194Y848668D01*
X466080Y846782D01*
G37*
G36*
X465137Y846392D02*
X456637Y846392D01*
X456637Y849058D01*
X465137Y849058D01*
X465137Y846392D01*
G37*
G36*
X464194Y846782D02*
X455841Y855136D01*
X457726Y857021D01*
X466080Y848668D01*
X464194Y846782D01*
G37*
G54D13*
G54D13*
G36*
X513017Y822325D02*
X513017Y830825D01*
X515683Y830825D01*
X515683Y822325D01*
X513017Y822325D01*
G37*
G36*
X513407Y823268D02*
X521761Y831621D01*
X523646Y829736D01*
X515293Y821382D01*
X513407Y823268D01*
G37*
G36*
X514350Y823658D02*
X522850Y823658D01*
X522850Y820992D01*
X514350Y820992D01*
X514350Y823658D01*
G37*
G36*
X515293Y823268D02*
X523646Y814914D01*
X521761Y813029D01*
X513407Y821382D01*
X515293Y823268D01*
G37*
G36*
X515683Y822325D02*
X515683Y813825D01*
X513017Y813825D01*
X513017Y822325D01*
X515683Y822325D01*
G37*
G36*
X515293Y821382D02*
X506939Y813029D01*
X505054Y814914D01*
X513407Y823268D01*
X515293Y821382D01*
G37*
G36*
X514350Y820992D02*
X505850Y820992D01*
X505850Y823658D01*
X514350Y823658D01*
X514350Y820992D01*
G37*
G36*
X513407Y821382D02*
X505054Y829736D01*
X506939Y831621D01*
X515293Y823268D01*
X513407Y821382D01*
G37*
G54D13*
G36*
X657479Y847725D02*
X657479Y856225D01*
X660145Y856225D01*
X660145Y847725D01*
X657479Y847725D01*
G37*
G36*
X657869Y848668D02*
X666223Y857021D01*
X668108Y855136D01*
X659755Y846782D01*
X657869Y848668D01*
G37*
G36*
X658812Y849058D02*
X667312Y849058D01*
X667312Y846392D01*
X658812Y846392D01*
X658812Y849058D01*
G37*
G36*
X659755Y848668D02*
X668108Y840314D01*
X666223Y838429D01*
X657869Y846782D01*
X659755Y848668D01*
G37*
G36*
X660145Y847725D02*
X660145Y839225D01*
X657479Y839225D01*
X657479Y847725D01*
X660145Y847725D01*
G37*
G36*
X659755Y846782D02*
X651401Y838429D01*
X649516Y840314D01*
X657869Y848668D01*
X659755Y846782D01*
G37*
G36*
X658812Y846392D02*
X650312Y846392D01*
X650312Y849058D01*
X658812Y849058D01*
X658812Y846392D01*
G37*
G36*
X657869Y846782D02*
X649516Y855136D01*
X651401Y857021D01*
X659755Y848668D01*
X657869Y846782D01*
G37*
G54D13*
G54D13*
G36*
X703517Y822325D02*
X703517Y830825D01*
X706183Y830825D01*
X706183Y822325D01*
X703517Y822325D01*
G37*
G36*
X703907Y823268D02*
X712261Y831621D01*
X714146Y829736D01*
X705793Y821382D01*
X703907Y823268D01*
G37*
G36*
X704850Y823658D02*
X713350Y823658D01*
X713350Y820992D01*
X704850Y820992D01*
X704850Y823658D01*
G37*
G36*
X705793Y823268D02*
X714146Y814914D01*
X712261Y813029D01*
X703907Y821382D01*
X705793Y823268D01*
G37*
G36*
X706183Y822325D02*
X706183Y813825D01*
X703517Y813825D01*
X703517Y822325D01*
X706183Y822325D01*
G37*
G36*
X705793Y821382D02*
X697439Y813029D01*
X695554Y814914D01*
X703907Y823268D01*
X705793Y821382D01*
G37*
G36*
X704850Y820992D02*
X696350Y820992D01*
X696350Y823658D01*
X704850Y823658D01*
X704850Y820992D01*
G37*
G36*
X703907Y821382D02*
X695554Y829736D01*
X697439Y831621D01*
X705793Y823268D01*
X703907Y821382D01*
G37*
G54D13*
G54D13*
G54D13*
G54D13*
G36*
X278067Y847725D02*
X278067Y856225D01*
X280733Y856225D01*
X280733Y847725D01*
X278067Y847725D01*
G37*
G36*
X278457Y848668D02*
X286811Y857021D01*
X288696Y855136D01*
X280343Y846782D01*
X278457Y848668D01*
G37*
G36*
X279400Y849058D02*
X287900Y849058D01*
X287900Y846392D01*
X279400Y846392D01*
X279400Y849058D01*
G37*
G36*
X280343Y848668D02*
X288696Y840314D01*
X286811Y838429D01*
X278457Y846782D01*
X280343Y848668D01*
G37*
G36*
X280733Y847725D02*
X280733Y839225D01*
X278067Y839225D01*
X278067Y847725D01*
X280733Y847725D01*
G37*
G36*
X280343Y846782D02*
X271989Y838429D01*
X270104Y840314D01*
X278457Y848668D01*
X280343Y846782D01*
G37*
G36*
X279400Y846392D02*
X270900Y846392D01*
X270900Y849058D01*
X279400Y849058D01*
X279400Y846392D01*
G37*
G36*
X278457Y846782D02*
X270104Y855136D01*
X271989Y857021D01*
X280343Y848668D01*
X278457Y846782D01*
G37*
G54D13*
G36*
X322517Y822325D02*
X322517Y830825D01*
X325183Y830825D01*
X325183Y822325D01*
X322517Y822325D01*
G37*
G36*
X322907Y823268D02*
X331261Y831621D01*
X333146Y829736D01*
X324793Y821382D01*
X322907Y823268D01*
G37*
G36*
X323850Y823658D02*
X332350Y823658D01*
X332350Y820992D01*
X323850Y820992D01*
X323850Y823658D01*
G37*
G36*
X324793Y823268D02*
X333146Y814914D01*
X331261Y813029D01*
X322907Y821382D01*
X324793Y823268D01*
G37*
G36*
X325183Y822325D02*
X325183Y813825D01*
X322517Y813825D01*
X322517Y822325D01*
X325183Y822325D01*
G37*
G36*
X324793Y821382D02*
X316439Y813029D01*
X314554Y814914D01*
X322907Y823268D01*
X324793Y821382D01*
G37*
G36*
X323850Y820992D02*
X315350Y820992D01*
X315350Y823658D01*
X323850Y823658D01*
X323850Y820992D01*
G37*
G36*
X322907Y821382D02*
X314554Y829736D01*
X316439Y831621D01*
X324793Y823268D01*
X322907Y821382D01*
G37*
G54D13*
G54D13*
G54D13*
G54D13*
G54D13*
X107553Y768350D02*
G54D14*
D03*
X82153Y768350D02*
G54D14*
D03*
X132953Y768350D02*
G54D14*
D03*
X158353Y768350D02*
G54D14*
D03*
X183753Y768350D02*
G54D14*
D03*
X209153Y768350D02*
G54D14*
D03*
X234553Y768350D02*
G54D14*
D03*
X259953Y768350D02*
G54D14*
D03*
X310753Y768350D02*
G54D14*
D03*
X285353Y768350D02*
G54D14*
D03*
X336153Y768350D02*
G54D14*
D03*
X361553Y768350D02*
G54D14*
D03*
X386953Y768350D02*
G54D14*
D03*
X412353Y768350D02*
G54D14*
D03*
X437753Y768350D02*
G54D14*
D03*
X463153Y768350D02*
G54D14*
D03*
X488553Y768350D02*
G54D14*
D03*
X513953Y768350D02*
G54D14*
D03*
X539353Y768350D02*
G54D14*
D03*
X564753Y768350D02*
G54D14*
D03*
X590153Y768350D02*
G54D14*
D03*
X615553Y768350D02*
G54D14*
D03*
X640953Y768350D02*
G54D14*
D03*
X691753Y768350D02*
G54D14*
D03*
X666353Y768350D02*
G54D14*
D03*
X717153Y768350D02*
G54D14*
D03*
X742553Y768350D02*
G54D14*
D03*
X767953Y768350D02*
G54D14*
D03*
X793353Y768350D02*
G54D14*
D03*
X818753Y768350D02*
G54D14*
D03*
X72628Y758825D02*
G54D14*
D03*
X825103Y758825D02*
G54D14*
D03*
X310753Y768350D02*
G54D14*
D03*
X285353Y768350D02*
G54D14*
D03*
X336153Y768350D02*
G54D14*
D03*
X361553Y768350D02*
G54D14*
D03*
X386953Y768350D02*
G54D14*
D03*
X412353Y768350D02*
G54D14*
D03*
X437753Y768350D02*
G54D14*
D03*
X463153Y768350D02*
G54D14*
D03*
X488553Y768350D02*
G54D14*
D03*
X513953Y768350D02*
G54D14*
D03*
X539353Y768350D02*
G54D14*
D03*
X564753Y768350D02*
G54D14*
D03*
X590153Y768350D02*
G54D14*
D03*
X615553Y768350D02*
G54D14*
D03*
X640953Y768350D02*
G54D14*
D03*
X691753Y768350D02*
G54D14*
D03*
X666353Y768350D02*
G54D14*
D03*
X717153Y768350D02*
G54D14*
D03*
X742553Y768350D02*
G54D14*
D03*
X767953Y768350D02*
G54D14*
D03*
X793353Y768350D02*
G54D14*
D03*
X818753Y768350D02*
G54D14*
D03*
X825103Y758825D02*
G54D14*
D03*
X53975Y950912D02*
G54D15*
D03*
G36*
X24575Y954912D02*
X32575Y954912D01*
X32575Y946912D01*
X24575Y946912D01*
X24575Y954912D01*
G37*
X41275Y915988D02*
G54D15*
D03*
X74612Y947738D02*
G54D15*
D03*
G36*
X70612Y929512D02*
X78612Y929512D01*
X78612Y921512D01*
X70612Y921512D01*
X70612Y929512D01*
G37*
X92075Y908050D02*
G54D15*
D03*
X92075Y887412D02*
G54D15*
D03*
X119062Y974725D02*
G54D15*
D03*
X115887Y955675D02*
G54D15*
D03*
X133350Y950912D02*
G54D15*
D03*
X150812Y950912D02*
G54D15*
D03*
X168275Y950912D02*
G54D15*
D03*
X187325Y950912D02*
G54D15*
D03*
X169862Y915988D02*
G54D15*
D03*
X153988Y915988D02*
G54D15*
D03*
X139700Y915988D02*
G54D15*
D03*
X119062Y895350D02*
G54D15*
D03*
X179388Y871538D02*
G54D15*
D03*
X174625Y854075D02*
G54D15*
D03*
X134938Y844550D02*
G54D15*
D03*
X114300Y847725D02*
G54D15*
D03*
G36*
X84900Y851725D02*
X92900Y851725D01*
X92900Y843725D01*
X84900Y843725D01*
X84900Y851725D01*
G37*
X88900Y823912D02*
G54D15*
D03*
X101600Y812800D02*
G54D15*
D03*
G36*
X130937Y826325D02*
X138937Y826325D01*
X138937Y818325D01*
X130937Y818325D01*
X130937Y826325D01*
G37*
X149225Y781050D02*
G54D15*
D03*
X160338Y792162D02*
G54D15*
D03*
X176212Y792162D02*
G54D15*
D03*
X192088Y812800D02*
G54D15*
D03*
X217488Y812800D02*
G54D15*
D03*
X234950Y812800D02*
G54D15*
D03*
X209153Y828675D02*
G54D15*
D03*
X192881Y848519D02*
G54D15*
D03*
X210344Y848519D02*
G54D15*
D03*
X228600Y848519D02*
G54D15*
D03*
X246062Y848519D02*
G54D15*
D03*
X225425Y915988D02*
G54D15*
D03*
X273844Y890588D02*
G54D15*
D03*
X288925Y895350D02*
G54D15*
D03*
X304006Y895350D02*
G54D15*
D03*
G36*
X208725Y954912D02*
X216725Y954912D01*
X216725Y946912D01*
X208725Y946912D01*
X208725Y954912D01*
G37*
X238125Y950912D02*
G54D15*
D03*
X257969Y947738D02*
G54D15*
D03*
G36*
X253969Y930306D02*
X261969Y930306D01*
X261969Y922306D01*
X253969Y922306D01*
X253969Y930306D01*
G37*
X302419Y973931D02*
G54D15*
D03*
X299244Y956469D02*
G54D15*
D03*
X316706Y950912D02*
G54D15*
D03*
X334169Y950912D02*
G54D15*
D03*
X352425Y950912D02*
G54D15*
D03*
X369888Y950912D02*
G54D15*
D03*
G36*
X392875Y954912D02*
X400875Y954912D01*
X400875Y946912D01*
X392875Y946912D01*
X392875Y954912D01*
G37*
X421481Y950912D02*
G54D15*
D03*
X442119Y946944D02*
G54D15*
D03*
G36*
X438119Y930306D02*
X446119Y930306D01*
X446119Y922306D01*
X438119Y922306D01*
X438119Y930306D01*
G37*
X500062Y950912D02*
G54D15*
D03*
X518319Y950912D02*
G54D15*
D03*
X535781Y950912D02*
G54D15*
D03*
X554038Y950912D02*
G54D15*
D03*
X486569Y973931D02*
G54D15*
D03*
X482600Y956469D02*
G54D15*
D03*
G36*
X576231Y954912D02*
X584231Y954912D01*
X584231Y946912D01*
X576231Y946912D01*
X576231Y954912D01*
G37*
X605631Y950912D02*
G54D15*
D03*
X625475Y947738D02*
G54D15*
D03*
G36*
X621475Y930306D02*
X629475Y930306D01*
X629475Y922306D01*
X621475Y922306D01*
X621475Y930306D01*
G37*
X684212Y950912D02*
G54D15*
D03*
X701675Y950912D02*
G54D15*
D03*
X719138Y950912D02*
G54D15*
D03*
X737394Y950912D02*
G54D15*
D03*
X669925Y973931D02*
G54D15*
D03*
X665956Y956469D02*
G54D15*
D03*
X764381Y965994D02*
G54D15*
D03*
G36*
X763556Y905700D02*
X771556Y905700D01*
X771556Y897700D01*
X763556Y897700D01*
X763556Y905700D01*
G37*
X831056Y931862D02*
G54D15*
D03*
X831850Y888206D02*
G54D15*
D03*
X856456Y888206D02*
G54D15*
D03*
X869156Y943769D02*
G54D15*
D03*
G36*
X865156Y927131D02*
X873156Y927131D01*
X873156Y919131D01*
X865156Y919131D01*
X865156Y927131D01*
G37*
X792956Y923131D02*
G54D15*
D03*
X738187Y915987D02*
G54D15*
D03*
X720725Y915988D02*
G54D15*
D03*
X703262Y915988D02*
G54D15*
D03*
X684212Y915988D02*
G54D15*
D03*
X592138Y915988D02*
G54D15*
D03*
X536575Y915988D02*
G54D15*
D03*
X519112Y915988D02*
G54D15*
D03*
X500062Y915988D02*
G54D15*
D03*
X409575Y915988D02*
G54D15*
D03*
X360362Y915988D02*
G54D15*
D03*
X342900Y915988D02*
G54D15*
D03*
X325438Y915988D02*
G54D15*
D03*
X666750Y895350D02*
G54D15*
D03*
X650875Y895350D02*
G54D15*
D03*
X482600Y895350D02*
G54D15*
D03*
X466725Y895350D02*
G54D15*
D03*
X457200Y885825D02*
G54D15*
D03*
X640556Y886619D02*
G54D15*
D03*
X742950Y887412D02*
G54D15*
D03*
X558800Y874712D02*
G54D15*
D03*
X579438Y847725D02*
G54D15*
D03*
X596900Y847725D02*
G54D15*
D03*
X614362Y847725D02*
G54D15*
D03*
X479425Y847725D02*
G54D15*
D03*
G36*
X461137Y851725D02*
X469137Y851725D01*
X469137Y843725D01*
X461137Y843725D01*
X461137Y851725D01*
G37*
X493712Y842962D02*
G54D15*
D03*
X538162Y849312D02*
G54D15*
D03*
X558800Y850900D02*
G54D15*
D03*
X514350Y839788D02*
G54D15*
D03*
G36*
X510350Y826325D02*
X518350Y826325D01*
X518350Y818325D01*
X510350Y818325D01*
X510350Y826325D01*
G37*
X631825Y847725D02*
G54D15*
D03*
G36*
X654812Y851725D02*
X662812Y851725D01*
X662812Y843725D01*
X654812Y843725D01*
X654812Y851725D01*
G37*
X684212Y847725D02*
G54D15*
D03*
X763588Y847725D02*
G54D15*
D03*
X781050Y847725D02*
G54D15*
D03*
X800100Y847725D02*
G54D15*
D03*
X815975Y847725D02*
G54D15*
D03*
X800100Y812800D02*
G54D15*
D03*
X781050Y812800D02*
G54D15*
D03*
X763588Y812800D02*
G54D15*
D03*
X749300Y871538D02*
G54D15*
D03*
X746125Y850900D02*
G54D15*
D03*
X704850Y844550D02*
G54D15*
D03*
G36*
X700850Y826325D02*
X708850Y826325D01*
X708850Y818325D01*
X700850Y818325D01*
X700850Y826325D01*
G37*
X825500Y812800D02*
G54D15*
D03*
X822325Y792162D02*
G54D15*
D03*
X749300Y792162D02*
G54D15*
D03*
X731838Y792162D02*
G54D15*
D03*
X719931Y785019D02*
G54D15*
D03*
X671512Y812800D02*
G54D15*
D03*
X647700Y790575D02*
G54D15*
D03*
X631825Y790575D02*
G54D15*
D03*
X615950Y812800D02*
G54D15*
D03*
X598488Y812800D02*
G54D15*
D03*
X581025Y812800D02*
G54D15*
D03*
X481012Y812800D02*
G54D15*
D03*
X555625Y792162D02*
G54D15*
D03*
X539750Y792162D02*
G54D15*
D03*
X530225Y782638D02*
G54D15*
D03*
X446088Y868362D02*
G54D15*
D03*
X442912Y792162D02*
G54D15*
D03*
X425450Y812800D02*
G54D15*
D03*
X404812Y812800D02*
G54D15*
D03*
X390525Y812800D02*
G54D15*
D03*
X292100Y812800D02*
G54D15*
D03*
G36*
X275400Y851725D02*
X283400Y851725D01*
X283400Y843725D01*
X275400Y843725D01*
X275400Y851725D01*
G37*
X304800Y847725D02*
G54D15*
D03*
X323850Y844550D02*
G54D15*
D03*
G36*
X319850Y826325D02*
X327850Y826325D01*
X327850Y818325D01*
X319850Y818325D01*
X319850Y826325D01*
G37*
X344488Y855662D02*
G54D15*
D03*
X354012Y869950D02*
G54D15*
D03*
X369888Y871538D02*
G54D15*
D03*
X368300Y850900D02*
G54D15*
D03*
X339725Y785019D02*
G54D15*
D03*
X352425Y792162D02*
G54D15*
D03*
X369888Y796925D02*
G54D15*
D03*
X400050Y847725D02*
G54D15*
D03*
X417512Y847725D02*
G54D15*
D03*
X436562Y847725D02*
G54D15*
D03*
X376237Y895350D02*
G54D15*
D03*
X192087Y895350D02*
G54D15*
D03*
X252412Y788988D02*
G54D15*
D03*
X268288Y787400D02*
G54D15*
D03*
X560387Y895350D02*
G54D15*
D03*
X71438Y792162D02*
G54D15*
D03*
M02*
