%FSLAX34Y34*%
%MOMM*%
%LNSILK_BOTTOM*%
G71*
G01*
%ADD10C,0.254*%
%LPD*%
G54D10*
X873919Y959644D02*
X873919Y973866D01*
X866808Y964977D01*
X859696Y973866D01*
X859696Y959644D01*
G54D10*
X854719Y959644D02*
X847608Y973866D01*
X840496Y959644D01*
G54D10*
X851874Y964977D02*
X843341Y964977D01*
G54D10*
X835519Y959644D02*
X835519Y973866D01*
X828408Y973866D01*
X825563Y972977D01*
X824141Y971199D01*
X824141Y962310D01*
X825563Y960533D01*
X828408Y959644D01*
X835519Y959644D01*
G54D10*
X809207Y959644D02*
X819163Y959644D01*
X819163Y973866D01*
X809207Y973866D01*
G54D10*
X819163Y966755D02*
X809207Y966755D01*
G54D10*
X793705Y959644D02*
X793705Y973866D01*
G54D10*
X788727Y959644D02*
X788727Y973866D01*
X777349Y959644D01*
X777349Y973866D01*
G54D10*
X761847Y962310D02*
X760424Y960533D01*
X757580Y959644D01*
X754736Y959644D01*
X751891Y960533D01*
X750469Y962310D01*
X750469Y964088D01*
X751891Y965866D01*
X754736Y966755D01*
X757580Y966755D01*
X760424Y967644D01*
X761847Y969422D01*
X761847Y971199D01*
X760424Y972977D01*
X757580Y973866D01*
X754736Y973866D01*
X751891Y972977D01*
X750469Y971199D01*
G54D10*
X745491Y959644D02*
X745491Y973866D01*
X738380Y973866D01*
X735535Y972977D01*
X734113Y971199D01*
X734113Y969422D01*
X735535Y967644D01*
X738380Y966755D01*
X745491Y966755D01*
G54D10*
X723446Y966755D02*
X719179Y964977D01*
X717757Y963199D01*
X717757Y959644D01*
G54D10*
X729135Y959644D02*
X729135Y973866D01*
X722024Y973866D01*
X719179Y972977D01*
X717757Y971199D01*
X717757Y969422D01*
X719179Y967644D01*
X722024Y966755D01*
X729135Y966755D01*
G54D10*
X712779Y959644D02*
X712779Y973866D01*
G54D10*
X707801Y959644D02*
X707801Y973866D01*
X696423Y959644D01*
X696423Y973866D01*
G54D10*
X685756Y959644D02*
X685756Y973866D01*
G54D10*
X691445Y973866D02*
X680067Y973866D01*
G54D10*
X862607Y927894D02*
X862607Y942116D01*
X871141Y933227D01*
X871141Y931449D01*
X859763Y931449D01*
G54D10*
X854785Y927894D02*
X854785Y942116D01*
X847674Y933227D01*
X840562Y942116D01*
X840562Y927894D01*
G54D10*
X835585Y927894D02*
X835585Y942116D01*
X828474Y942116D01*
X825629Y941227D01*
X824207Y939449D01*
X824207Y937672D01*
X825629Y935894D01*
X828474Y935005D01*
X825629Y934116D01*
X824207Y932338D01*
X824207Y930560D01*
X825629Y928783D01*
X828474Y927894D01*
X835585Y927894D01*
G54D10*
X835585Y935005D02*
X828474Y935005D01*
G54D10*
X811122Y927894D02*
X811122Y941227D01*
X809700Y942116D01*
X808278Y941583D01*
G54D10*
X813967Y935894D02*
X808278Y935894D01*
G54D10*
X794766Y930027D02*
X794766Y933583D01*
X796188Y935360D01*
X799033Y935894D01*
X801877Y935360D01*
X803300Y933583D01*
X803300Y930027D01*
X801877Y928249D01*
X799033Y927894D01*
X796188Y928249D01*
X794766Y930027D01*
G54D10*
X789789Y927894D02*
X789789Y935894D01*
G54D10*
X789789Y934116D02*
X786944Y935894D01*
X784100Y935894D01*
G54D10*
X773860Y927894D02*
X773860Y942116D01*
X766748Y933227D01*
X759637Y942116D01*
X759637Y927894D01*
G54D10*
X754660Y935005D02*
X751815Y935894D01*
X748402Y935894D01*
X746126Y934116D01*
X746126Y927894D01*
G54D10*
X746126Y930560D02*
X747548Y932338D01*
X750393Y932694D01*
X753237Y932338D01*
X754660Y930560D01*
X754091Y928783D01*
X751815Y927894D01*
X750393Y927894D01*
X749824Y927894D01*
X747548Y928783D01*
X746126Y930560D01*
G54D10*
X734038Y935360D02*
X736882Y935894D01*
X739726Y935360D01*
X741149Y933583D01*
X741149Y930027D01*
X739726Y928249D01*
X736882Y927894D01*
X734038Y928249D01*
G54D10*
X729060Y927894D02*
X729060Y935894D01*
G54D10*
X729060Y938560D02*
X729060Y938560D01*
G54D10*
X724082Y927894D02*
X724082Y935894D01*
G54D10*
X724082Y934116D02*
X722659Y935360D01*
X719815Y935894D01*
X716970Y935360D01*
X715548Y934116D01*
X715548Y927894D01*
G54D10*
X707726Y942116D02*
X707726Y928783D01*
X706304Y927894D01*
X704882Y928249D01*
G54D10*
X710571Y935894D02*
X704882Y935894D01*
G54D10*
X691370Y930027D02*
X691370Y933583D01*
X692792Y935360D01*
X695637Y935894D01*
X698481Y935360D01*
X699904Y933583D01*
X699904Y930027D01*
X698481Y928249D01*
X695637Y927894D01*
X692792Y928249D01*
X691370Y930027D01*
G54D10*
X686393Y928783D02*
X683548Y927894D01*
X680704Y927894D01*
X677859Y928783D01*
X677859Y930560D01*
X679282Y931449D01*
X684970Y932338D01*
X686393Y933227D01*
X686393Y935005D01*
X683548Y935894D01*
X680704Y935894D01*
X677859Y935005D01*
G54D10*
X672882Y927894D02*
X672882Y942116D01*
G54D10*
X672882Y933583D02*
X671459Y935360D01*
X668615Y935894D01*
X665770Y935360D01*
X664348Y933583D01*
X664348Y927894D01*
G54D10*
X654109Y927894D02*
X654109Y942116D01*
G54D10*
X649131Y927894D02*
X649131Y942116D01*
G54D10*
X644153Y935894D02*
X632775Y927894D01*
G54D10*
X644153Y927894D02*
X632775Y935894D01*
M02*
