%FSLAX34Y34*%
%MOMM*%
%LNCOPPER_INNER2*%
G71*
G01*
%ADD10C,1.800*%
%ADD11C,1.600*%
%ADD12C,0.333*%
%ADD13C,0.267*%
%ADD14C,1.000*%
%ADD15C,0.800*%
%LPD*%
G36*
X0Y1000000D02*
X1600000Y1000000D01*
X1600000Y0D01*
X0Y0D01*
X0Y1000000D01*
G37*
%LPC*%
X107553Y768350D02*
G54D10*
D03*
X82153Y768350D02*
G54D10*
D03*
X132953Y768350D02*
G54D10*
D03*
X158353Y768350D02*
G54D10*
D03*
X183753Y768350D02*
G54D10*
D03*
X209153Y768350D02*
G54D10*
D03*
X234553Y768350D02*
G54D10*
D03*
X259953Y768350D02*
G54D10*
D03*
X310753Y768350D02*
G54D10*
D03*
X285353Y768350D02*
G54D10*
D03*
X336153Y768350D02*
G54D10*
D03*
X361553Y768350D02*
G54D10*
D03*
X386953Y768350D02*
G54D10*
D03*
X412353Y768350D02*
G54D10*
D03*
X437753Y768350D02*
G54D10*
D03*
X463153Y768350D02*
G54D10*
D03*
X488553Y768350D02*
G54D10*
D03*
X513953Y768350D02*
G54D10*
D03*
X539353Y768350D02*
G54D10*
D03*
X564753Y768350D02*
G54D10*
D03*
X590153Y768350D02*
G54D10*
D03*
X615553Y768350D02*
G54D10*
D03*
X640953Y768350D02*
G54D10*
D03*
X691753Y768350D02*
G54D10*
D03*
X666353Y768350D02*
G54D10*
D03*
X717153Y768350D02*
G54D10*
D03*
X742553Y768350D02*
G54D10*
D03*
X767953Y768350D02*
G54D10*
D03*
X793353Y768350D02*
G54D10*
D03*
X818753Y768350D02*
G54D10*
D03*
X72628Y758825D02*
G54D10*
D03*
X825103Y758825D02*
G54D10*
D03*
X310753Y768350D02*
G54D10*
D03*
X285353Y768350D02*
G54D10*
D03*
X336153Y768350D02*
G54D10*
D03*
X361553Y768350D02*
G54D10*
D03*
X386953Y768350D02*
G54D10*
D03*
X412353Y768350D02*
G54D10*
D03*
X437753Y768350D02*
G54D10*
D03*
X463153Y768350D02*
G54D10*
D03*
X488553Y768350D02*
G54D10*
D03*
X513953Y768350D02*
G54D10*
D03*
X539353Y768350D02*
G54D10*
D03*
X564753Y768350D02*
G54D10*
D03*
X590153Y768350D02*
G54D10*
D03*
X615553Y768350D02*
G54D10*
D03*
X640953Y768350D02*
G54D10*
D03*
X691753Y768350D02*
G54D10*
D03*
X666353Y768350D02*
G54D10*
D03*
X717153Y768350D02*
G54D10*
D03*
X742553Y768350D02*
G54D10*
D03*
X767953Y768350D02*
G54D10*
D03*
X793353Y768350D02*
G54D10*
D03*
X818753Y768350D02*
G54D10*
D03*
X825103Y758825D02*
G54D10*
D03*
X53975Y950912D02*
G54D11*
D03*
G36*
X20575Y958912D02*
X36575Y958912D01*
X36575Y942912D01*
X20575Y942912D01*
X20575Y958912D01*
G37*
X41275Y915988D02*
G54D11*
D03*
X74612Y947738D02*
G54D11*
D03*
G36*
X66612Y933512D02*
X82612Y933512D01*
X82612Y917512D01*
X66612Y917512D01*
X66612Y933512D01*
G37*
X92075Y908050D02*
G54D11*
D03*
X92075Y887412D02*
G54D11*
D03*
X119062Y974725D02*
G54D11*
D03*
X115887Y955675D02*
G54D11*
D03*
X133350Y950912D02*
G54D11*
D03*
X150812Y950912D02*
G54D11*
D03*
X168275Y950912D02*
G54D11*
D03*
X187325Y950912D02*
G54D11*
D03*
X169862Y915988D02*
G54D11*
D03*
X153988Y915988D02*
G54D11*
D03*
X139700Y915988D02*
G54D11*
D03*
X119062Y895350D02*
G54D11*
D03*
X179388Y871538D02*
G54D11*
D03*
X174625Y854075D02*
G54D11*
D03*
X134938Y844550D02*
G54D11*
D03*
X114300Y847725D02*
G54D11*
D03*
G36*
X80900Y855725D02*
X96900Y855725D01*
X96900Y839725D01*
X80900Y839725D01*
X80900Y855725D01*
G37*
X88900Y823912D02*
G54D11*
D03*
X101600Y812800D02*
G54D11*
D03*
G36*
X126937Y830325D02*
X142937Y830325D01*
X142937Y814325D01*
X126937Y814325D01*
X126937Y830325D01*
G37*
X149225Y781050D02*
G54D11*
D03*
X160338Y792162D02*
G54D11*
D03*
X176212Y792162D02*
G54D11*
D03*
X192088Y812800D02*
G54D11*
D03*
X217488Y812800D02*
G54D11*
D03*
X234950Y812800D02*
G54D11*
D03*
X209153Y828675D02*
G54D11*
D03*
X192881Y848519D02*
G54D11*
D03*
X210344Y848519D02*
G54D11*
D03*
X228600Y848519D02*
G54D11*
D03*
X246062Y848519D02*
G54D11*
D03*
X225425Y915988D02*
G54D11*
D03*
X273844Y890588D02*
G54D11*
D03*
X288925Y895350D02*
G54D11*
D03*
X304006Y895350D02*
G54D11*
D03*
G36*
X204725Y958912D02*
X220725Y958912D01*
X220725Y942912D01*
X204725Y942912D01*
X204725Y958912D01*
G37*
X238125Y950912D02*
G54D11*
D03*
X257969Y947738D02*
G54D11*
D03*
G36*
X249969Y934306D02*
X265969Y934306D01*
X265969Y918306D01*
X249969Y918306D01*
X249969Y934306D01*
G37*
X302419Y973931D02*
G54D11*
D03*
X299244Y956469D02*
G54D11*
D03*
X316706Y950912D02*
G54D11*
D03*
X334169Y950912D02*
G54D11*
D03*
X352425Y950912D02*
G54D11*
D03*
X369888Y950912D02*
G54D11*
D03*
G36*
X388875Y958912D02*
X404875Y958912D01*
X404875Y942912D01*
X388875Y942912D01*
X388875Y958912D01*
G37*
X421481Y950912D02*
G54D11*
D03*
X442119Y946944D02*
G54D11*
D03*
G36*
X434119Y934306D02*
X450119Y934306D01*
X450119Y918306D01*
X434119Y918306D01*
X434119Y934306D01*
G37*
X500062Y950912D02*
G54D11*
D03*
X518319Y950912D02*
G54D11*
D03*
X535781Y950912D02*
G54D11*
D03*
X554038Y950912D02*
G54D11*
D03*
X486569Y973931D02*
G54D11*
D03*
X482600Y956469D02*
G54D11*
D03*
G36*
X572231Y958912D02*
X588231Y958912D01*
X588231Y942912D01*
X572231Y942912D01*
X572231Y958912D01*
G37*
X605631Y950912D02*
G54D11*
D03*
X625475Y947738D02*
G54D11*
D03*
G36*
X617475Y934306D02*
X633475Y934306D01*
X633475Y918306D01*
X617475Y918306D01*
X617475Y934306D01*
G37*
X684212Y950912D02*
G54D11*
D03*
X701675Y950912D02*
G54D11*
D03*
X719138Y950912D02*
G54D11*
D03*
X737394Y950912D02*
G54D11*
D03*
X669925Y973931D02*
G54D11*
D03*
X665956Y956469D02*
G54D11*
D03*
X764381Y965994D02*
G54D11*
D03*
G36*
X759556Y909700D02*
X775556Y909700D01*
X775556Y893700D01*
X759556Y893700D01*
X759556Y909700D01*
G37*
X831056Y931862D02*
G54D11*
D03*
X831850Y888206D02*
G54D11*
D03*
X856456Y888206D02*
G54D11*
D03*
X869156Y943769D02*
G54D11*
D03*
G36*
X861156Y931131D02*
X877156Y931131D01*
X877156Y915131D01*
X861156Y915131D01*
X861156Y931131D01*
G37*
X792956Y923131D02*
G54D11*
D03*
X738187Y915987D02*
G54D11*
D03*
X720725Y915988D02*
G54D11*
D03*
X703262Y915988D02*
G54D11*
D03*
X684212Y915988D02*
G54D11*
D03*
X592138Y915988D02*
G54D11*
D03*
X536575Y915988D02*
G54D11*
D03*
X519112Y915988D02*
G54D11*
D03*
X500062Y915988D02*
G54D11*
D03*
X409575Y915988D02*
G54D11*
D03*
X360362Y915988D02*
G54D11*
D03*
X342900Y915988D02*
G54D11*
D03*
X325438Y915988D02*
G54D11*
D03*
X666750Y895350D02*
G54D11*
D03*
X650875Y895350D02*
G54D11*
D03*
X482600Y895350D02*
G54D11*
D03*
X466725Y895350D02*
G54D11*
D03*
X457200Y885825D02*
G54D11*
D03*
X640556Y886619D02*
G54D11*
D03*
X742950Y887412D02*
G54D11*
D03*
X558800Y874712D02*
G54D11*
D03*
X579438Y847725D02*
G54D11*
D03*
X596900Y847725D02*
G54D11*
D03*
X614362Y847725D02*
G54D11*
D03*
X479425Y847725D02*
G54D11*
D03*
G36*
X457137Y855725D02*
X473137Y855725D01*
X473137Y839725D01*
X457137Y839725D01*
X457137Y855725D01*
G37*
X493712Y842962D02*
G54D11*
D03*
X538162Y849312D02*
G54D11*
D03*
X558800Y850900D02*
G54D11*
D03*
X514350Y839788D02*
G54D11*
D03*
G36*
X506350Y830325D02*
X522350Y830325D01*
X522350Y814325D01*
X506350Y814325D01*
X506350Y830325D01*
G37*
X631825Y847725D02*
G54D11*
D03*
G36*
X650812Y855725D02*
X666812Y855725D01*
X666812Y839725D01*
X650812Y839725D01*
X650812Y855725D01*
G37*
X684212Y847725D02*
G54D11*
D03*
X763588Y847725D02*
G54D11*
D03*
X781050Y847725D02*
G54D11*
D03*
X800100Y847725D02*
G54D11*
D03*
X815975Y847725D02*
G54D11*
D03*
X800100Y812800D02*
G54D11*
D03*
X781050Y812800D02*
G54D11*
D03*
X763588Y812800D02*
G54D11*
D03*
X749300Y871538D02*
G54D11*
D03*
X746125Y850900D02*
G54D11*
D03*
X704850Y844550D02*
G54D11*
D03*
G36*
X696850Y830325D02*
X712850Y830325D01*
X712850Y814325D01*
X696850Y814325D01*
X696850Y830325D01*
G37*
X825500Y812800D02*
G54D11*
D03*
X822325Y792162D02*
G54D11*
D03*
X749300Y792162D02*
G54D11*
D03*
X731838Y792162D02*
G54D11*
D03*
X719931Y785019D02*
G54D11*
D03*
X671512Y812800D02*
G54D11*
D03*
X647700Y790575D02*
G54D11*
D03*
X631825Y790575D02*
G54D11*
D03*
X615950Y812800D02*
G54D11*
D03*
X598488Y812800D02*
G54D11*
D03*
X581025Y812800D02*
G54D11*
D03*
X481012Y812800D02*
G54D11*
D03*
X555625Y792162D02*
G54D11*
D03*
X539750Y792162D02*
G54D11*
D03*
X530225Y782638D02*
G54D11*
D03*
X446088Y868362D02*
G54D11*
D03*
X442912Y792162D02*
G54D11*
D03*
X425450Y812800D02*
G54D11*
D03*
X404812Y812800D02*
G54D11*
D03*
X390525Y812800D02*
G54D11*
D03*
X292100Y812800D02*
G54D11*
D03*
G36*
X271400Y855725D02*
X287400Y855725D01*
X287400Y839725D01*
X271400Y839725D01*
X271400Y855725D01*
G37*
X304800Y847725D02*
G54D11*
D03*
X323850Y844550D02*
G54D11*
D03*
G36*
X315850Y830325D02*
X331850Y830325D01*
X331850Y814325D01*
X315850Y814325D01*
X315850Y830325D01*
G37*
X344488Y855662D02*
G54D11*
D03*
X354012Y869950D02*
G54D11*
D03*
X369888Y871538D02*
G54D11*
D03*
X368300Y850900D02*
G54D11*
D03*
X339725Y785019D02*
G54D11*
D03*
X352425Y792162D02*
G54D11*
D03*
X369888Y796925D02*
G54D11*
D03*
X400050Y847725D02*
G54D11*
D03*
X417512Y847725D02*
G54D11*
D03*
X436562Y847725D02*
G54D11*
D03*
X376237Y895350D02*
G54D11*
D03*
X192087Y895350D02*
G54D11*
D03*
X252412Y788988D02*
G54D11*
D03*
X268288Y787400D02*
G54D11*
D03*
X560387Y895350D02*
G54D11*
D03*
X71438Y792162D02*
G54D11*
D03*
%LPD*%
G54D12*
G36*
X80486Y768350D02*
X80486Y777850D01*
X83820Y777850D01*
X83820Y768350D01*
X80486Y768350D01*
G37*
G36*
X80974Y769529D02*
X87692Y776246D01*
X90049Y773889D01*
X83332Y767171D01*
X80974Y769529D01*
G37*
G36*
X82153Y770017D02*
X91653Y770017D01*
X91653Y766683D01*
X82153Y766683D01*
X82153Y770017D01*
G37*
G36*
X83332Y769529D02*
X90049Y762811D01*
X87692Y760454D01*
X80974Y767171D01*
X83332Y769529D01*
G37*
G36*
X83820Y768350D02*
X83820Y758850D01*
X80486Y758850D01*
X80486Y768350D01*
X83820Y768350D01*
G37*
G36*
X83332Y767171D02*
X76614Y760454D01*
X74257Y762811D01*
X80974Y769529D01*
X83332Y767171D01*
G37*
G36*
X82153Y766683D02*
X72653Y766683D01*
X72653Y770017D01*
X82153Y770017D01*
X82153Y766683D01*
G37*
G36*
X80974Y767171D02*
X74257Y773889D01*
X76614Y776246D01*
X83332Y769529D01*
X80974Y767171D01*
G37*
G54D12*
G36*
X70961Y758825D02*
X70961Y768325D01*
X74295Y768325D01*
X74295Y758825D01*
X70961Y758825D01*
G37*
G36*
X71449Y760004D02*
X78167Y766721D01*
X80524Y764364D01*
X73807Y757646D01*
X71449Y760004D01*
G37*
G36*
X72628Y760492D02*
X82128Y760492D01*
X82128Y757158D01*
X72628Y757158D01*
X72628Y760492D01*
G37*
G36*
X73807Y760004D02*
X80524Y753286D01*
X78167Y750929D01*
X71449Y757646D01*
X73807Y760004D01*
G37*
G36*
X74295Y758825D02*
X74295Y749325D01*
X70961Y749325D01*
X70961Y758825D01*
X74295Y758825D01*
G37*
G36*
X73807Y757646D02*
X67089Y750929D01*
X64732Y753286D01*
X71449Y760004D01*
X73807Y757646D01*
G37*
G36*
X72628Y757158D02*
X63128Y757158D01*
X63128Y760492D01*
X72628Y760492D01*
X72628Y757158D01*
G37*
G36*
X71449Y757646D02*
X64732Y764364D01*
X67089Y766721D01*
X73807Y760004D01*
X71449Y757646D01*
G37*
G54D12*
G54D12*
G54D12*
G36*
X817086Y768350D02*
X817086Y777850D01*
X820420Y777850D01*
X820420Y768350D01*
X817086Y768350D01*
G37*
G36*
X817574Y769529D02*
X824292Y776246D01*
X826649Y773889D01*
X819932Y767171D01*
X817574Y769529D01*
G37*
G36*
X818753Y770017D02*
X828253Y770017D01*
X828253Y766683D01*
X818753Y766683D01*
X818753Y770017D01*
G37*
G36*
X819932Y769529D02*
X826649Y762811D01*
X824292Y760454D01*
X817574Y767171D01*
X819932Y769529D01*
G37*
G36*
X820420Y768350D02*
X820420Y758850D01*
X817086Y758850D01*
X817086Y768350D01*
X820420Y768350D01*
G37*
G36*
X819932Y767171D02*
X813214Y760454D01*
X810857Y762811D01*
X817574Y769529D01*
X819932Y767171D01*
G37*
G36*
X818753Y766683D02*
X809253Y766683D01*
X809253Y770017D01*
X818753Y770017D01*
X818753Y766683D01*
G37*
G36*
X817574Y767171D02*
X810857Y773889D01*
X813214Y776246D01*
X819932Y769529D01*
X817574Y767171D01*
G37*
G54D12*
G36*
X823436Y758825D02*
X823436Y768325D01*
X826770Y768325D01*
X826770Y758825D01*
X823436Y758825D01*
G37*
G36*
X823924Y760004D02*
X830642Y766721D01*
X832999Y764364D01*
X826282Y757646D01*
X823924Y760004D01*
G37*
G36*
X825103Y760492D02*
X834603Y760492D01*
X834603Y757158D01*
X825103Y757158D01*
X825103Y760492D01*
G37*
G36*
X826282Y760004D02*
X832999Y753286D01*
X830642Y750929D01*
X823924Y757646D01*
X826282Y760004D01*
G37*
G36*
X826770Y758825D02*
X826770Y749325D01*
X823436Y749325D01*
X823436Y758825D01*
X826770Y758825D01*
G37*
G36*
X826282Y757646D02*
X819564Y750929D01*
X817207Y753286D01*
X823924Y760004D01*
X826282Y757646D01*
G37*
G36*
X825103Y757158D02*
X815603Y757158D01*
X815603Y760492D01*
X825103Y760492D01*
X825103Y757158D01*
G37*
G36*
X823924Y757646D02*
X817207Y764364D01*
X819564Y766721D01*
X826282Y760004D01*
X823924Y757646D01*
G37*
G54D13*
G54D13*
G54D13*
G36*
X114554Y955675D02*
X114554Y964175D01*
X117220Y964175D01*
X117220Y955675D01*
X114554Y955675D01*
G37*
G36*
X114944Y956618D02*
X120955Y962628D01*
X122840Y960743D01*
X116830Y954732D01*
X114944Y956618D01*
G37*
G36*
X115887Y957008D02*
X124387Y957008D01*
X124387Y954342D01*
X115887Y954342D01*
X115887Y957008D01*
G37*
G36*
X116830Y956618D02*
X122840Y950607D01*
X120955Y948722D01*
X114944Y954732D01*
X116830Y956618D01*
G37*
G36*
X117220Y955675D02*
X117220Y947175D01*
X114554Y947175D01*
X114554Y955675D01*
X117220Y955675D01*
G37*
G36*
X116830Y954732D02*
X110819Y948722D01*
X108934Y950607D01*
X114944Y956618D01*
X116830Y954732D01*
G37*
G36*
X115887Y954342D02*
X107387Y954342D01*
X107387Y957008D01*
X115887Y957008D01*
X115887Y954342D01*
G37*
G36*
X114944Y954732D02*
X108934Y960743D01*
X110819Y962628D01*
X116830Y956618D01*
X114944Y954732D01*
G37*
G54D13*
G36*
X173292Y854075D02*
X173292Y862575D01*
X175958Y862575D01*
X175958Y854075D01*
X173292Y854075D01*
G37*
G36*
X173682Y855018D02*
X179693Y861028D01*
X181578Y859143D01*
X175568Y853132D01*
X173682Y855018D01*
G37*
G36*
X174625Y855408D02*
X183125Y855408D01*
X183125Y852742D01*
X174625Y852742D01*
X174625Y855408D01*
G37*
G36*
X175568Y855018D02*
X181578Y849007D01*
X179693Y847122D01*
X173682Y853132D01*
X175568Y855018D01*
G37*
G36*
X175958Y854075D02*
X175958Y845575D01*
X173292Y845575D01*
X173292Y854075D01*
X175958Y854075D01*
G37*
G36*
X175568Y853132D02*
X169557Y847122D01*
X167672Y849007D01*
X173682Y855018D01*
X175568Y853132D01*
G37*
G36*
X174625Y852742D02*
X166125Y852742D01*
X166125Y855408D01*
X174625Y855408D01*
X174625Y852742D01*
G37*
G36*
X173682Y853132D02*
X167672Y859143D01*
X169557Y861028D01*
X175568Y855018D01*
X173682Y853132D01*
G37*
G54D13*
G54D13*
G54D13*
G54D13*
G54D13*
G36*
X297911Y956469D02*
X297911Y964969D01*
X300577Y964969D01*
X300577Y956469D01*
X297911Y956469D01*
G37*
G36*
X298301Y957412D02*
X304312Y963422D01*
X306197Y961537D01*
X300187Y955526D01*
X298301Y957412D01*
G37*
G36*
X299244Y957802D02*
X307744Y957802D01*
X307744Y955136D01*
X299244Y955136D01*
X299244Y957802D01*
G37*
G36*
X300187Y957412D02*
X306197Y951401D01*
X304312Y949516D01*
X298301Y955526D01*
X300187Y957412D01*
G37*
G36*
X300577Y956469D02*
X300577Y947969D01*
X297911Y947969D01*
X297911Y956469D01*
X300577Y956469D01*
G37*
G36*
X300187Y955526D02*
X294176Y949516D01*
X292291Y951401D01*
X298301Y957412D01*
X300187Y955526D01*
G37*
G36*
X299244Y955136D02*
X290744Y955136D01*
X290744Y957802D01*
X299244Y957802D01*
X299244Y955136D01*
G37*
G36*
X298301Y955526D02*
X292291Y961537D01*
X294176Y963422D01*
X300187Y957412D01*
X298301Y955526D01*
G37*
G54D13*
G54D13*
G54D13*
G36*
X481267Y956469D02*
X481267Y964969D01*
X483933Y964969D01*
X483933Y956469D01*
X481267Y956469D01*
G37*
G36*
X481657Y957412D02*
X487668Y963422D01*
X489553Y961537D01*
X483543Y955526D01*
X481657Y957412D01*
G37*
G36*
X482600Y957802D02*
X491100Y957802D01*
X491100Y955136D01*
X482600Y955136D01*
X482600Y957802D01*
G37*
G36*
X483543Y957412D02*
X489553Y951401D01*
X487668Y949516D01*
X481657Y955526D01*
X483543Y957412D01*
G37*
G36*
X483933Y956469D02*
X483933Y947969D01*
X481267Y947969D01*
X481267Y956469D01*
X483933Y956469D01*
G37*
G36*
X483543Y955526D02*
X477532Y949516D01*
X475647Y951401D01*
X481657Y957412D01*
X483543Y955526D01*
G37*
G36*
X482600Y955136D02*
X474100Y955136D01*
X474100Y957802D01*
X482600Y957802D01*
X482600Y955136D01*
G37*
G36*
X481657Y955526D02*
X475647Y961537D01*
X477532Y963422D01*
X483543Y957412D01*
X481657Y955526D01*
G37*
G54D13*
G54D13*
G54D13*
G36*
X664623Y956469D02*
X664623Y964969D01*
X667289Y964969D01*
X667289Y956469D01*
X664623Y956469D01*
G37*
G36*
X665013Y957412D02*
X671024Y963422D01*
X672909Y961537D01*
X666899Y955526D01*
X665013Y957412D01*
G37*
G36*
X665956Y957802D02*
X674456Y957802D01*
X674456Y955136D01*
X665956Y955136D01*
X665956Y957802D01*
G37*
G36*
X666899Y957412D02*
X672909Y951401D01*
X671024Y949516D01*
X665013Y955526D01*
X666899Y957412D01*
G37*
G36*
X667289Y956469D02*
X667289Y947969D01*
X664623Y947969D01*
X664623Y956469D01*
X667289Y956469D01*
G37*
G36*
X666899Y955526D02*
X660888Y949516D01*
X659003Y951401D01*
X665013Y957412D01*
X666899Y955526D01*
G37*
G36*
X665956Y955136D02*
X657456Y955136D01*
X657456Y957802D01*
X665956Y957802D01*
X665956Y955136D01*
G37*
G36*
X665013Y955526D02*
X659003Y961537D01*
X660888Y963422D01*
X666899Y957412D01*
X665013Y955526D01*
G37*
G54D13*
G36*
X763048Y965994D02*
X763048Y974494D01*
X765714Y974494D01*
X765714Y965994D01*
X763048Y965994D01*
G37*
G36*
X763438Y966937D02*
X769449Y972947D01*
X771334Y971062D01*
X765324Y965051D01*
X763438Y966937D01*
G37*
G36*
X764381Y967327D02*
X772881Y967327D01*
X772881Y964661D01*
X764381Y964661D01*
X764381Y967327D01*
G37*
G36*
X765324Y966937D02*
X771334Y960926D01*
X769449Y959041D01*
X763438Y965051D01*
X765324Y966937D01*
G37*
G36*
X765714Y965994D02*
X765714Y957494D01*
X763048Y957494D01*
X763048Y965994D01*
X765714Y965994D01*
G37*
G36*
X765324Y965051D02*
X759313Y959041D01*
X757428Y960926D01*
X763438Y966937D01*
X765324Y965051D01*
G37*
G36*
X764381Y964661D02*
X755881Y964661D01*
X755881Y967327D01*
X764381Y967327D01*
X764381Y964661D01*
G37*
G36*
X763438Y965051D02*
X757428Y971062D01*
X759313Y972947D01*
X765324Y966937D01*
X763438Y965051D01*
G37*
G54D13*
G54D13*
G54D13*
G36*
X736854Y915987D02*
X736854Y924487D01*
X739520Y924487D01*
X739520Y915987D01*
X736854Y915987D01*
G37*
G36*
X737244Y916930D02*
X743255Y922940D01*
X745140Y921055D01*
X739130Y915044D01*
X737244Y916930D01*
G37*
G36*
X738187Y917320D02*
X746687Y917320D01*
X746687Y914654D01*
X738187Y914654D01*
X738187Y917320D01*
G37*
G36*
X739130Y916930D02*
X745140Y910919D01*
X743255Y909034D01*
X737244Y915044D01*
X739130Y916930D01*
G37*
G36*
X739520Y915987D02*
X739520Y907487D01*
X736854Y907487D01*
X736854Y915987D01*
X739520Y915987D01*
G37*
G36*
X739130Y915044D02*
X733119Y909034D01*
X731234Y910919D01*
X737244Y916930D01*
X739130Y915044D01*
G37*
G36*
X738187Y914654D02*
X729687Y914654D01*
X729687Y917320D01*
X738187Y917320D01*
X738187Y914654D01*
G37*
G36*
X737244Y915044D02*
X731234Y921055D01*
X733119Y922940D01*
X739130Y916930D01*
X737244Y915044D01*
G37*
G54D13*
G54D13*
G36*
X557467Y850900D02*
X557467Y859400D01*
X560133Y859400D01*
X560133Y850900D01*
X557467Y850900D01*
G37*
G36*
X557857Y851843D02*
X563868Y857853D01*
X565753Y855968D01*
X559743Y849957D01*
X557857Y851843D01*
G37*
G36*
X558800Y852233D02*
X567300Y852233D01*
X567300Y849567D01*
X558800Y849567D01*
X558800Y852233D01*
G37*
G36*
X559743Y851843D02*
X565753Y845832D01*
X563868Y843947D01*
X557857Y849957D01*
X559743Y851843D01*
G37*
G36*
X560133Y850900D02*
X560133Y842400D01*
X557467Y842400D01*
X557467Y850900D01*
X560133Y850900D01*
G37*
G36*
X559743Y849957D02*
X553732Y843947D01*
X551847Y845832D01*
X557857Y851843D01*
X559743Y849957D01*
G37*
G36*
X558800Y849567D02*
X550300Y849567D01*
X550300Y852233D01*
X558800Y852233D01*
X558800Y849567D01*
G37*
G36*
X557857Y849957D02*
X551847Y855968D01*
X553732Y857853D01*
X559743Y851843D01*
X557857Y849957D01*
G37*
G54D13*
G54D13*
G54D13*
G36*
X744792Y850900D02*
X744792Y859400D01*
X747458Y859400D01*
X747458Y850900D01*
X744792Y850900D01*
G37*
G36*
X745182Y851843D02*
X751193Y857853D01*
X753078Y855968D01*
X747068Y849957D01*
X745182Y851843D01*
G37*
G36*
X746125Y852233D02*
X754625Y852233D01*
X754625Y849567D01*
X746125Y849567D01*
X746125Y852233D01*
G37*
G36*
X747068Y851843D02*
X753078Y845832D01*
X751193Y843947D01*
X745182Y849957D01*
X747068Y851843D01*
G37*
G36*
X747458Y850900D02*
X747458Y842400D01*
X744792Y842400D01*
X744792Y850900D01*
X747458Y850900D01*
G37*
G36*
X747068Y849957D02*
X741057Y843947D01*
X739172Y845832D01*
X745182Y851843D01*
X747068Y849957D01*
G37*
G36*
X746125Y849567D02*
X737625Y849567D01*
X737625Y852233D01*
X746125Y852233D01*
X746125Y849567D01*
G37*
G36*
X745182Y849957D02*
X739172Y855968D01*
X741057Y857853D01*
X747068Y851843D01*
X745182Y849957D01*
G37*
G54D13*
G54D13*
G36*
X820992Y792162D02*
X820992Y800662D01*
X823658Y800662D01*
X823658Y792162D01*
X820992Y792162D01*
G37*
G36*
X821382Y793105D02*
X827393Y799115D01*
X829278Y797230D01*
X823268Y791219D01*
X821382Y793105D01*
G37*
G36*
X822325Y793495D02*
X830825Y793495D01*
X830825Y790829D01*
X822325Y790829D01*
X822325Y793495D01*
G37*
G36*
X823268Y793105D02*
X829278Y787094D01*
X827393Y785209D01*
X821382Y791219D01*
X823268Y793105D01*
G37*
G36*
X823658Y792162D02*
X823658Y783662D01*
X820992Y783662D01*
X820992Y792162D01*
X823658Y792162D01*
G37*
G36*
X823268Y791219D02*
X817257Y785209D01*
X815372Y787094D01*
X821382Y793105D01*
X823268Y791219D01*
G37*
G36*
X822325Y790829D02*
X813825Y790829D01*
X813825Y793495D01*
X822325Y793495D01*
X822325Y790829D01*
G37*
G36*
X821382Y791219D02*
X815372Y797230D01*
X817257Y799115D01*
X823268Y793105D01*
X821382Y791219D01*
G37*
G54D13*
G36*
X630492Y790575D02*
X630492Y799075D01*
X633158Y799075D01*
X633158Y790575D01*
X630492Y790575D01*
G37*
G36*
X630882Y791518D02*
X636893Y797528D01*
X638778Y795643D01*
X632768Y789632D01*
X630882Y791518D01*
G37*
G36*
X631825Y791908D02*
X640325Y791908D01*
X640325Y789242D01*
X631825Y789242D01*
X631825Y791908D01*
G37*
G36*
X632768Y791518D02*
X638778Y785507D01*
X636893Y783622D01*
X630882Y789632D01*
X632768Y791518D01*
G37*
G36*
X633158Y790575D02*
X633158Y782075D01*
X630492Y782075D01*
X630492Y790575D01*
X633158Y790575D01*
G37*
G36*
X632768Y789632D02*
X626757Y783622D01*
X624872Y785507D01*
X630882Y791518D01*
X632768Y789632D01*
G37*
G36*
X631825Y789242D02*
X623325Y789242D01*
X623325Y791908D01*
X631825Y791908D01*
X631825Y789242D01*
G37*
G36*
X630882Y789632D02*
X624872Y795643D01*
X626757Y797528D01*
X632768Y791518D01*
X630882Y789632D01*
G37*
G54D13*
G36*
X441579Y792162D02*
X441579Y800662D01*
X444245Y800662D01*
X444245Y792162D01*
X441579Y792162D01*
G37*
G36*
X441969Y793105D02*
X447980Y799115D01*
X449865Y797230D01*
X443855Y791219D01*
X441969Y793105D01*
G37*
G36*
X442912Y793495D02*
X451412Y793495D01*
X451412Y790829D01*
X442912Y790829D01*
X442912Y793495D01*
G37*
G36*
X443855Y793105D02*
X449865Y787094D01*
X447980Y785209D01*
X441969Y791219D01*
X443855Y793105D01*
G37*
G36*
X444245Y792162D02*
X444245Y783662D01*
X441579Y783662D01*
X441579Y792162D01*
X444245Y792162D01*
G37*
G36*
X443855Y791219D02*
X437844Y785209D01*
X435959Y787094D01*
X441969Y793105D01*
X443855Y791219D01*
G37*
G36*
X442912Y790829D02*
X434412Y790829D01*
X434412Y793495D01*
X442912Y793495D01*
X442912Y790829D01*
G37*
G36*
X441969Y791219D02*
X435959Y797230D01*
X437844Y799115D01*
X443855Y793105D01*
X441969Y791219D01*
G37*
G54D13*
G54D13*
G54D13*
G36*
X366967Y850900D02*
X366967Y859400D01*
X369633Y859400D01*
X369633Y850900D01*
X366967Y850900D01*
G37*
G36*
X367357Y851843D02*
X373368Y857853D01*
X375253Y855968D01*
X369243Y849957D01*
X367357Y851843D01*
G37*
G36*
X368300Y852233D02*
X376800Y852233D01*
X376800Y849567D01*
X368300Y849567D01*
X368300Y852233D01*
G37*
G36*
X369243Y851843D02*
X375253Y845832D01*
X373368Y843947D01*
X367357Y849957D01*
X369243Y851843D01*
G37*
G36*
X369633Y850900D02*
X369633Y842400D01*
X366967Y842400D01*
X366967Y850900D01*
X369633Y850900D01*
G37*
G36*
X369243Y849957D02*
X363232Y843947D01*
X361347Y845832D01*
X367357Y851843D01*
X369243Y849957D01*
G37*
G36*
X368300Y849567D02*
X359800Y849567D01*
X359800Y852233D01*
X368300Y852233D01*
X368300Y849567D01*
G37*
G36*
X367357Y849957D02*
X361347Y855968D01*
X363232Y857853D01*
X369243Y851843D01*
X367357Y849957D01*
G37*
G54D13*
G36*
X374904Y895350D02*
X374904Y903850D01*
X377570Y903850D01*
X377570Y895350D01*
X374904Y895350D01*
G37*
G36*
X375294Y896293D02*
X381305Y902303D01*
X383190Y900418D01*
X377180Y894407D01*
X375294Y896293D01*
G37*
G36*
X376237Y896683D02*
X384737Y896683D01*
X384737Y894017D01*
X376237Y894017D01*
X376237Y896683D01*
G37*
G36*
X377180Y896293D02*
X383190Y890282D01*
X381305Y888397D01*
X375294Y894407D01*
X377180Y896293D01*
G37*
G36*
X377570Y895350D02*
X377570Y886850D01*
X374904Y886850D01*
X374904Y895350D01*
X377570Y895350D01*
G37*
G36*
X377180Y894407D02*
X371169Y888397D01*
X369284Y890282D01*
X375294Y896293D01*
X377180Y894407D01*
G37*
G36*
X376237Y894017D02*
X367737Y894017D01*
X367737Y896683D01*
X376237Y896683D01*
X376237Y894017D01*
G37*
G36*
X375294Y894407D02*
X369284Y900418D01*
X371169Y902303D01*
X377180Y896293D01*
X375294Y894407D01*
G37*
G54D13*
G36*
X190754Y895350D02*
X190754Y903850D01*
X193420Y903850D01*
X193420Y895350D01*
X190754Y895350D01*
G37*
G36*
X191144Y896293D02*
X197155Y902303D01*
X199040Y900418D01*
X193030Y894407D01*
X191144Y896293D01*
G37*
G36*
X192087Y896683D02*
X200587Y896683D01*
X200587Y894017D01*
X192087Y894017D01*
X192087Y896683D01*
G37*
G36*
X193030Y896293D02*
X199040Y890282D01*
X197155Y888397D01*
X191144Y894407D01*
X193030Y896293D01*
G37*
G36*
X193420Y895350D02*
X193420Y886850D01*
X190754Y886850D01*
X190754Y895350D01*
X193420Y895350D01*
G37*
G36*
X193030Y894407D02*
X187019Y888397D01*
X185134Y890282D01*
X191144Y896293D01*
X193030Y894407D01*
G37*
G36*
X192087Y894017D02*
X183587Y894017D01*
X183587Y896683D01*
X192087Y896683D01*
X192087Y894017D01*
G37*
G36*
X191144Y894407D02*
X185134Y900418D01*
X187019Y902303D01*
X193030Y896293D01*
X191144Y894407D01*
G37*
G54D13*
G36*
X251079Y788988D02*
X251079Y797488D01*
X253745Y797488D01*
X253745Y788988D01*
X251079Y788988D01*
G37*
G36*
X251469Y789931D02*
X257480Y795941D01*
X259365Y794056D01*
X253355Y788045D01*
X251469Y789931D01*
G37*
G36*
X252412Y790321D02*
X260912Y790321D01*
X260912Y787655D01*
X252412Y787655D01*
X252412Y790321D01*
G37*
G36*
X253355Y789931D02*
X259365Y783920D01*
X257480Y782035D01*
X251469Y788045D01*
X253355Y789931D01*
G37*
G36*
X253745Y788988D02*
X253745Y780488D01*
X251079Y780488D01*
X251079Y788988D01*
X253745Y788988D01*
G37*
G36*
X253355Y788045D02*
X247344Y782035D01*
X245459Y783920D01*
X251469Y789931D01*
X253355Y788045D01*
G37*
G36*
X252412Y787655D02*
X243912Y787655D01*
X243912Y790321D01*
X252412Y790321D01*
X252412Y787655D01*
G37*
G36*
X251469Y788045D02*
X245459Y794056D01*
X247344Y795941D01*
X253355Y789931D01*
X251469Y788045D01*
G37*
G54D13*
G36*
X559054Y895350D02*
X559054Y903850D01*
X561720Y903850D01*
X561720Y895350D01*
X559054Y895350D01*
G37*
G36*
X559444Y896293D02*
X565455Y902303D01*
X567340Y900418D01*
X561330Y894407D01*
X559444Y896293D01*
G37*
G36*
X560387Y896683D02*
X568887Y896683D01*
X568887Y894017D01*
X560387Y894017D01*
X560387Y896683D01*
G37*
G36*
X561330Y896293D02*
X567340Y890282D01*
X565455Y888397D01*
X559444Y894407D01*
X561330Y896293D01*
G37*
G36*
X561720Y895350D02*
X561720Y886850D01*
X559054Y886850D01*
X559054Y895350D01*
X561720Y895350D01*
G37*
G36*
X561330Y894407D02*
X555319Y888397D01*
X553434Y890282D01*
X559444Y896293D01*
X561330Y894407D01*
G37*
G36*
X560387Y894017D02*
X551887Y894017D01*
X551887Y896683D01*
X560387Y896683D01*
X560387Y894017D01*
G37*
G36*
X559444Y894407D02*
X553434Y900418D01*
X555319Y902303D01*
X561330Y896293D01*
X559444Y894407D01*
G37*
X107553Y768350D02*
G54D14*
D03*
X82153Y768350D02*
G54D14*
D03*
X132953Y768350D02*
G54D14*
D03*
X158353Y768350D02*
G54D14*
D03*
X183753Y768350D02*
G54D14*
D03*
X209153Y768350D02*
G54D14*
D03*
X234553Y768350D02*
G54D14*
D03*
X259953Y768350D02*
G54D14*
D03*
X310753Y768350D02*
G54D14*
D03*
X285353Y768350D02*
G54D14*
D03*
X336153Y768350D02*
G54D14*
D03*
X361553Y768350D02*
G54D14*
D03*
X386953Y768350D02*
G54D14*
D03*
X412353Y768350D02*
G54D14*
D03*
X437753Y768350D02*
G54D14*
D03*
X463153Y768350D02*
G54D14*
D03*
X488553Y768350D02*
G54D14*
D03*
X513953Y768350D02*
G54D14*
D03*
X539353Y768350D02*
G54D14*
D03*
X564753Y768350D02*
G54D14*
D03*
X590153Y768350D02*
G54D14*
D03*
X615553Y768350D02*
G54D14*
D03*
X640953Y768350D02*
G54D14*
D03*
X691753Y768350D02*
G54D14*
D03*
X666353Y768350D02*
G54D14*
D03*
X717153Y768350D02*
G54D14*
D03*
X742553Y768350D02*
G54D14*
D03*
X767953Y768350D02*
G54D14*
D03*
X793353Y768350D02*
G54D14*
D03*
X818753Y768350D02*
G54D14*
D03*
X72628Y758825D02*
G54D14*
D03*
X825103Y758825D02*
G54D14*
D03*
X310753Y768350D02*
G54D14*
D03*
X285353Y768350D02*
G54D14*
D03*
X336153Y768350D02*
G54D14*
D03*
X361553Y768350D02*
G54D14*
D03*
X386953Y768350D02*
G54D14*
D03*
X412353Y768350D02*
G54D14*
D03*
X437753Y768350D02*
G54D14*
D03*
X463153Y768350D02*
G54D14*
D03*
X488553Y768350D02*
G54D14*
D03*
X513953Y768350D02*
G54D14*
D03*
X539353Y768350D02*
G54D14*
D03*
X564753Y768350D02*
G54D14*
D03*
X590153Y768350D02*
G54D14*
D03*
X615553Y768350D02*
G54D14*
D03*
X640953Y768350D02*
G54D14*
D03*
X691753Y768350D02*
G54D14*
D03*
X666353Y768350D02*
G54D14*
D03*
X717153Y768350D02*
G54D14*
D03*
X742553Y768350D02*
G54D14*
D03*
X767953Y768350D02*
G54D14*
D03*
X793353Y768350D02*
G54D14*
D03*
X818753Y768350D02*
G54D14*
D03*
X825103Y758825D02*
G54D14*
D03*
X53975Y950912D02*
G54D15*
D03*
G36*
X24575Y954912D02*
X32575Y954912D01*
X32575Y946912D01*
X24575Y946912D01*
X24575Y954912D01*
G37*
X41275Y915988D02*
G54D15*
D03*
X74612Y947738D02*
G54D15*
D03*
G36*
X70612Y929512D02*
X78612Y929512D01*
X78612Y921512D01*
X70612Y921512D01*
X70612Y929512D01*
G37*
X92075Y908050D02*
G54D15*
D03*
X92075Y887412D02*
G54D15*
D03*
X119062Y974725D02*
G54D15*
D03*
X115887Y955675D02*
G54D15*
D03*
X133350Y950912D02*
G54D15*
D03*
X150812Y950912D02*
G54D15*
D03*
X168275Y950912D02*
G54D15*
D03*
X187325Y950912D02*
G54D15*
D03*
X169862Y915988D02*
G54D15*
D03*
X153988Y915988D02*
G54D15*
D03*
X139700Y915988D02*
G54D15*
D03*
X119062Y895350D02*
G54D15*
D03*
X179388Y871538D02*
G54D15*
D03*
X174625Y854075D02*
G54D15*
D03*
X134938Y844550D02*
G54D15*
D03*
X114300Y847725D02*
G54D15*
D03*
G36*
X84900Y851725D02*
X92900Y851725D01*
X92900Y843725D01*
X84900Y843725D01*
X84900Y851725D01*
G37*
X88900Y823912D02*
G54D15*
D03*
X101600Y812800D02*
G54D15*
D03*
G36*
X130937Y826325D02*
X138937Y826325D01*
X138937Y818325D01*
X130937Y818325D01*
X130937Y826325D01*
G37*
X149225Y781050D02*
G54D15*
D03*
X160338Y792162D02*
G54D15*
D03*
X176212Y792162D02*
G54D15*
D03*
X192088Y812800D02*
G54D15*
D03*
X217488Y812800D02*
G54D15*
D03*
X234950Y812800D02*
G54D15*
D03*
X209153Y828675D02*
G54D15*
D03*
X192881Y848519D02*
G54D15*
D03*
X210344Y848519D02*
G54D15*
D03*
X228600Y848519D02*
G54D15*
D03*
X246062Y848519D02*
G54D15*
D03*
X225425Y915988D02*
G54D15*
D03*
X273844Y890588D02*
G54D15*
D03*
X288925Y895350D02*
G54D15*
D03*
X304006Y895350D02*
G54D15*
D03*
G36*
X208725Y954912D02*
X216725Y954912D01*
X216725Y946912D01*
X208725Y946912D01*
X208725Y954912D01*
G37*
X238125Y950912D02*
G54D15*
D03*
X257969Y947738D02*
G54D15*
D03*
G36*
X253969Y930306D02*
X261969Y930306D01*
X261969Y922306D01*
X253969Y922306D01*
X253969Y930306D01*
G37*
X302419Y973931D02*
G54D15*
D03*
X299244Y956469D02*
G54D15*
D03*
X316706Y950912D02*
G54D15*
D03*
X334169Y950912D02*
G54D15*
D03*
X352425Y950912D02*
G54D15*
D03*
X369888Y950912D02*
G54D15*
D03*
G36*
X392875Y954912D02*
X400875Y954912D01*
X400875Y946912D01*
X392875Y946912D01*
X392875Y954912D01*
G37*
X421481Y950912D02*
G54D15*
D03*
X442119Y946944D02*
G54D15*
D03*
G36*
X438119Y930306D02*
X446119Y930306D01*
X446119Y922306D01*
X438119Y922306D01*
X438119Y930306D01*
G37*
X500062Y950912D02*
G54D15*
D03*
X518319Y950912D02*
G54D15*
D03*
X535781Y950912D02*
G54D15*
D03*
X554038Y950912D02*
G54D15*
D03*
X486569Y973931D02*
G54D15*
D03*
X482600Y956469D02*
G54D15*
D03*
G36*
X576231Y954912D02*
X584231Y954912D01*
X584231Y946912D01*
X576231Y946912D01*
X576231Y954912D01*
G37*
X605631Y950912D02*
G54D15*
D03*
X625475Y947738D02*
G54D15*
D03*
G36*
X621475Y930306D02*
X629475Y930306D01*
X629475Y922306D01*
X621475Y922306D01*
X621475Y930306D01*
G37*
X684212Y950912D02*
G54D15*
D03*
X701675Y950912D02*
G54D15*
D03*
X719138Y950912D02*
G54D15*
D03*
X737394Y950912D02*
G54D15*
D03*
X669925Y973931D02*
G54D15*
D03*
X665956Y956469D02*
G54D15*
D03*
X764381Y965994D02*
G54D15*
D03*
G36*
X763556Y905700D02*
X771556Y905700D01*
X771556Y897700D01*
X763556Y897700D01*
X763556Y905700D01*
G37*
X831056Y931862D02*
G54D15*
D03*
X831850Y888206D02*
G54D15*
D03*
X856456Y888206D02*
G54D15*
D03*
X869156Y943769D02*
G54D15*
D03*
G36*
X865156Y927131D02*
X873156Y927131D01*
X873156Y919131D01*
X865156Y919131D01*
X865156Y927131D01*
G37*
X792956Y923131D02*
G54D15*
D03*
X738187Y915987D02*
G54D15*
D03*
X720725Y915988D02*
G54D15*
D03*
X703262Y915988D02*
G54D15*
D03*
X684212Y915988D02*
G54D15*
D03*
X592138Y915988D02*
G54D15*
D03*
X536575Y915988D02*
G54D15*
D03*
X519112Y915988D02*
G54D15*
D03*
X500062Y915988D02*
G54D15*
D03*
X409575Y915988D02*
G54D15*
D03*
X360362Y915988D02*
G54D15*
D03*
X342900Y915988D02*
G54D15*
D03*
X325438Y915988D02*
G54D15*
D03*
X666750Y895350D02*
G54D15*
D03*
X650875Y895350D02*
G54D15*
D03*
X482600Y895350D02*
G54D15*
D03*
X466725Y895350D02*
G54D15*
D03*
X457200Y885825D02*
G54D15*
D03*
X640556Y886619D02*
G54D15*
D03*
X742950Y887412D02*
G54D15*
D03*
X558800Y874712D02*
G54D15*
D03*
X579438Y847725D02*
G54D15*
D03*
X596900Y847725D02*
G54D15*
D03*
X614362Y847725D02*
G54D15*
D03*
X479425Y847725D02*
G54D15*
D03*
G36*
X461137Y851725D02*
X469137Y851725D01*
X469137Y843725D01*
X461137Y843725D01*
X461137Y851725D01*
G37*
X493712Y842962D02*
G54D15*
D03*
X538162Y849312D02*
G54D15*
D03*
X558800Y850900D02*
G54D15*
D03*
X514350Y839788D02*
G54D15*
D03*
G36*
X510350Y826325D02*
X518350Y826325D01*
X518350Y818325D01*
X510350Y818325D01*
X510350Y826325D01*
G37*
X631825Y847725D02*
G54D15*
D03*
G36*
X654812Y851725D02*
X662812Y851725D01*
X662812Y843725D01*
X654812Y843725D01*
X654812Y851725D01*
G37*
X684212Y847725D02*
G54D15*
D03*
X763588Y847725D02*
G54D15*
D03*
X781050Y847725D02*
G54D15*
D03*
X800100Y847725D02*
G54D15*
D03*
X815975Y847725D02*
G54D15*
D03*
X800100Y812800D02*
G54D15*
D03*
X781050Y812800D02*
G54D15*
D03*
X763588Y812800D02*
G54D15*
D03*
X749300Y871538D02*
G54D15*
D03*
X746125Y850900D02*
G54D15*
D03*
X704850Y844550D02*
G54D15*
D03*
G36*
X700850Y826325D02*
X708850Y826325D01*
X708850Y818325D01*
X700850Y818325D01*
X700850Y826325D01*
G37*
X825500Y812800D02*
G54D15*
D03*
X822325Y792162D02*
G54D15*
D03*
X749300Y792162D02*
G54D15*
D03*
X731838Y792162D02*
G54D15*
D03*
X719931Y785019D02*
G54D15*
D03*
X671512Y812800D02*
G54D15*
D03*
X647700Y790575D02*
G54D15*
D03*
X631825Y790575D02*
G54D15*
D03*
X615950Y812800D02*
G54D15*
D03*
X598488Y812800D02*
G54D15*
D03*
X581025Y812800D02*
G54D15*
D03*
X481012Y812800D02*
G54D15*
D03*
X555625Y792162D02*
G54D15*
D03*
X539750Y792162D02*
G54D15*
D03*
X530225Y782638D02*
G54D15*
D03*
X446088Y868362D02*
G54D15*
D03*
X442912Y792162D02*
G54D15*
D03*
X425450Y812800D02*
G54D15*
D03*
X404812Y812800D02*
G54D15*
D03*
X390525Y812800D02*
G54D15*
D03*
X292100Y812800D02*
G54D15*
D03*
G36*
X275400Y851725D02*
X283400Y851725D01*
X283400Y843725D01*
X275400Y843725D01*
X275400Y851725D01*
G37*
X304800Y847725D02*
G54D15*
D03*
X323850Y844550D02*
G54D15*
D03*
G36*
X319850Y826325D02*
X327850Y826325D01*
X327850Y818325D01*
X319850Y818325D01*
X319850Y826325D01*
G37*
X344488Y855662D02*
G54D15*
D03*
X354012Y869950D02*
G54D15*
D03*
X369888Y871538D02*
G54D15*
D03*
X368300Y850900D02*
G54D15*
D03*
X339725Y785019D02*
G54D15*
D03*
X352425Y792162D02*
G54D15*
D03*
X369888Y796925D02*
G54D15*
D03*
X400050Y847725D02*
G54D15*
D03*
X417512Y847725D02*
G54D15*
D03*
X436562Y847725D02*
G54D15*
D03*
X376237Y895350D02*
G54D15*
D03*
X192087Y895350D02*
G54D15*
D03*
X252412Y788988D02*
G54D15*
D03*
X268288Y787400D02*
G54D15*
D03*
X560387Y895350D02*
G54D15*
D03*
X71438Y792162D02*
G54D15*
D03*
M02*
